<?xml version="1.0" encoding="utf-8"?>
<!-- Generator: Adobe Illustrator 16.2.1, SVG Export Plug-In . SVG Version: 6.00 Build 0)  -->
<!DOCTYPE svg PUBLIC "-//W3C//DTD SVG 1.1//EN" "http://www.w3.org/Graphics/SVG/1.1/DTD/svg11.dtd">
<svg version="1.1" id="Layer_1" xmlns="http://www.w3.org/2000/svg" xmlns:xlink="http://www.w3.org/1999/xlink" x="0px" y="0px"
	 width="56.693px" height="56.692px" viewBox="0 0 56.693 56.692" enable-background="new 0 0 56.693 56.692" xml:space="preserve">
<g>
	<path fill="#46515B" d="M56.693,10.124V34.42h-8.1v-8.099H8.099v8.099H0V10.124H56.693z M12.148,17.21
		c0-1.644-1.393-3.037-3.037-3.037c-1.709,0-3.037,1.393-3.037,3.037c0,1.709,1.328,3.037,3.037,3.037
		C10.755,20.247,12.148,18.919,12.148,17.21z M46.569,8.099H10.124L12.148,0h32.396L46.569,8.099z M10.124,28.346h36.445v16.198
		H34.42v12.148H10.124V28.346z M20.248,17.21c0-1.644-1.393-3.037-3.037-3.037c-1.709,0-3.037,1.393-3.037,3.037
		c0,1.709,1.328,3.037,3.037,3.037C18.854,20.247,20.248,18.919,20.248,17.21z M16.198,34.42h24.297v-2.025H16.198V34.42z
		 M16.198,40.495h24.297V38.47H16.198V40.495z M36.445,46.569h10.124L36.445,56.692V46.569z"/>
</g>
</svg>
