<?xml version="1.0" encoding="utf-8"?>
<!-- Generator: Adobe Illustrator 16.2.1, SVG Export Plug-In . SVG Version: 6.00 Build 0)  -->
<!DOCTYPE svg PUBLIC "-//W3C//DTD SVG 1.1//EN" "http://www.w3.org/Graphics/SVG/1.1/DTD/svg11.dtd">
<svg version="1.1" xmlns="http://www.w3.org/2000/svg" xmlns:xlink="http://www.w3.org/1999/xlink" x="0px" y="0px"
	 width="181.138px" height="57.855px" viewBox="0 0 181.138 57.855" enable-background="new 0 0 181.138 57.855"
	 xml:space="preserve">
<g id="raw" display="none">
	<circle display="inline" opacity="0.6" fill="#58595B" cx="-579.399" cy="122.894" r="198"/>
	<g display="inline" opacity="0.8">
		<polygon fill="#ED1C24" points="-446.43,229.935 -645.161,150.07 -476.628,17.906 		"/>
	</g>
	<g display="inline" opacity="0.8">
		<polygon fill="#ED1C24" points="-527.645,166.015 -727.15,88.104 -559.922,-45.708 		"/>
	</g>
	<g display="inline" opacity="0.8">
		<polygon fill="#ED1C24" points="-542.97,283.657 -728.157,176.059 -542.379,69.489 		"/>
	</g>
	<g display="inline" opacity="0.8">
		<polygon fill="#FFFFFF" points="-149.364,81.331 -149.478,81.418 -243.525,135.368 -226.667,141.952 -252.161,161.944 
			-149.715,203.114 -149.63,172.037 -134.646,177.89 		"/>
	</g>
	<g display="inline" opacity="0.8">
		<polygon fill="#ED1C24" points="-542.636,68.126 -542.639,68.094 -542.812,68.216 		"/>
	</g>
	<g display="inline" opacity="0.8">
		<polygon fill="#ED1C24" points="-542.626,68.122 -542.636,68.126 -542.63,68.186 		"/>
	</g>
	<g display="inline" opacity="0.8">
		<polygon fill="#ED1C24" points="-544.584,69.667 -544.587,69.668 -544.584,69.729 		"/>
	</g>
</g>
<g id="Layer_1">
	<defs>
		<path id="SVGID_1_" d="M28.928,0C12.951,0,0,12.951,0,28.928s12.951,28.928,28.928,28.928s28.928-12.951,28.928-28.928
			S44.904,0,28.928,0z M34.287,38.913L34.25,52.415L7.194,36.695l13.388-7.68L7.341,23.845l24.432-19.55l2.565,16.826l9.604-7.532
			l4.412,30.978L34.287,38.913z"/>
	</defs>
	<clipPath id="SVGID_2_">
		<use xlink:href="#SVGID_1_"  overflow="visible" opacity="0.6"/>
	</clipPath>
	<circle clip-path="url(#SVGID_2_)" fill="#FFFFFF" cx="28.928" cy="28.928" r="28.928"/>
	<circle opacity="0.6" clip-path="url(#SVGID_2_)" fill="#EC358F" cx="28.928" cy="28.928" r="28.928"/>
	<g opacity="0.4" clip-path="url(#SVGID_2_)">
		<polygon fill="#EC358F" points="75.026,55.284 19.32,32.898 66.56,-4.148 		"/>
	</g>
	<g opacity="0.4" clip-path="url(#SVGID_2_)">
		<polygon fill="#EC358F" points="36.489,35.228 -15.349,14.984 28.103,-19.784 		"/>
	</g>
	<g opacity="0.4" clip-path="url(#SVGID_2_)">
		<polygon fill="#EC358F" points="34.179,78.288 -15.249,49.57 34.336,21.125 		"/>
	</g>
	<g opacity="0.4" clip-path="url(#SVGID_2_)">
		<polygon fill="#EC358F" points="34.338,21.121 34.322,21.134 20.582,29.016 23.045,29.977 19.32,32.898 34.287,38.913 
			34.299,34.373 36.489,35.228 		"/>
	</g>
	<g opacity="0.4" clip-path="url(#SVGID_2_)">
		<polygon fill="#EC358F" points="34.299,20.926 34.298,20.921 34.273,20.939 		"/>
	</g>
	<g opacity="0.4" clip-path="url(#SVGID_2_)">
		<polygon fill="#EC358F" points="34.301,20.926 34.299,20.926 34.3,20.935 		"/>
	</g>
	<g opacity="0.4" clip-path="url(#SVGID_2_)">
		<polygon fill="#EC358F" points="34.015,21.151 34.014,21.151 34.014,21.16 		"/>
	</g>
	<polyline opacity="0.4" clip-path="url(#SVGID_2_)" fill="#EC358F" points="34.322,21.134 66.013,-3.719 28.451,-17.281 
		34.322,21.134 	"/>
	<line opacity="0.4" clip-path="url(#SVGID_2_)" fill="#EC358F" x1="43.942" y1="13.589" x2="48.354" y2="44.566"/>
	<polygon opacity="0.35" clip-path="url(#SVGID_2_)" fill="#EC358F" points="52.923,76.648 39.373,-18.492 89.888,14.406 	"/>
	<polygon opacity="0.3" clip-path="url(#SVGID_2_)" fill="#EC358F" points="-20.878,46.45 54.122,-13.635 -5.223,-24.228 	"/>
	<polygon opacity="0.5" clip-path="url(#SVGID_2_)" fill="#EC358F" points="-22.903,19.181 60.172,67.489 3.052,86.759 	"/>
	<polyline opacity="0.46" clip-path="url(#SVGID_2_)" fill="#EC358F" points="34.287,38.913 34.179,78.288 58.805,55.284 
		53.043,46.45 34.287,38.913 	"/>
	<polygon clip-path="url(#SVGID_2_)" fill="#EC358F" points="7.217,36.697 -0.159,32.406 -0.784,41.281 	"/>
	<polygon opacity="0.01" clip-path="url(#SVGID_2_)" fill="#FFFFFF" points="7.341,23.859 -1.596,20.344 -0.556,30.169 	"/>
	<polygon opacity="0.3" clip-path="url(#SVGID_2_)" fill="#FFFFFF" points="43.942,13.593 52.942,6.531 42.281,1.926 	"/>
	<polygon opacity="0.6" clip-path="url(#SVGID_2_)" fill="#EC358F" points="31.751,4.313 39.821,-2.178 30.627,-3.039 	"/>
	<polygon opacity="0.3" clip-path="url(#SVGID_2_)" fill="#FFFFFF" points="34.263,52.406 40.779,56.203 34.236,57.735 	"/>
	<polygon opacity="0.7" clip-path="url(#SVGID_2_)" fill="#EC358F" points="48.354,44.566 49.31,51.219 53.043,46.45 	"/>
</g>
<g id="Layer_2">
	<polygon opacity="0.94" fill="#EC358F" points="36.489,35.228 34.338,21.121 34.322,21.134 20.582,29.016 23.045,29.977 
		19.32,32.898 34.287,38.913 34.299,34.373 	"/>
	<g>
		<g>
			<path fill="#3B454F" d="M68.711,9.01v10.008c1.228-2.549,3.683-3.697,6.29-3.697c4.234,0,7.608,2.933,7.608,8.128
				c0,5.228-3.344,8.128-7.577,8.128c-2.578,0-5.062-1.339-6.321-3.729v3.474H67.24V9.01H68.711z M68.743,23.417
				c0,3.92,2.639,6.629,6.197,6.629c3.405,0,6.198-2.231,6.198-6.599c0-4.431-2.793-6.63-6.198-6.63
				C71.443,16.818,68.743,19.496,68.743,23.417z"/>
			<path fill="#3B454F" d="M83.948,23.48c0-5.003,3.571-8.19,8-8.19c4.432,0,8.001,3.187,8.001,8.19
				c0,5.004-3.569,8.064-8.001,8.064C87.519,31.544,83.948,28.484,83.948,23.48z M98.419,23.48c0-4.079-2.901-6.725-6.471-6.725
				c-3.569,0-6.469,2.646-6.469,6.725c0,4.08,2.9,6.535,6.469,6.535C95.519,30.015,98.419,27.56,98.419,23.48z"/>
			<path fill="#3B454F" d="M101.303,23.48c0-5.003,3.57-8.19,8-8.19c4.432,0,8,3.187,8,8.19c0,5.004-3.569,8.064-8,8.064
				C104.874,31.544,101.303,28.484,101.303,23.48z M115.774,23.48c0-4.079-2.9-6.725-6.471-6.725c-3.57,0-6.47,2.646-6.47,6.725
				c0,4.08,2.9,6.535,6.47,6.535C112.874,30.015,115.774,27.56,115.774,23.48z"/>
			<path fill="#3B454F" d="M120.436,15.576v2.805c1.211-2.167,3.41-3.06,5.61-3.091c4.207,0,7.107,2.582,7.107,6.948v9.083h-1.562
				v-9.052c0-3.569-2.199-5.482-5.609-5.45c-3.251,0.032-5.515,2.487-5.515,5.737v8.765h-1.562V15.576H120.436z"/>
			<path fill="#3B454F" d="M148.483,29.122c-1.593,1.593-3.666,2.358-5.738,2.358c-4.43,0-8.095-3.06-8.095-8.032
				c0-4.972,3.538-8.032,8.095-8.032c2.072,0,4.145,0.796,5.738,2.358l-1.02,0.988c-1.274-1.275-3.029-1.881-4.718-1.881
				c-3.569,0-6.566,2.327-6.566,6.566c0,4.24,2.997,6.566,6.566,6.566c1.689,0,3.411-0.669,4.686-1.945L148.483,29.122z"/>
			<path fill="#3B454F" d="M149.042,23.48c0-5.003,3.57-8.19,8-8.19c4.431,0,8,3.187,8,8.19c0,5.004-3.57,8.064-8,8.064
				C152.612,31.544,149.042,28.484,149.042,23.48z M163.513,23.48c0-4.079-2.901-6.725-6.471-6.725s-6.47,2.646-6.47,6.725
				c0,4.08,2.9,6.535,6.47,6.535S163.513,27.56,163.513,23.48z"/>
			<path fill="#3B454F" d="M168.42,15.576v2.805c1.212-2.167,3.411-3.06,5.61-3.091c4.208,0,7.107,2.582,7.107,6.948v9.083h-1.562
				v-9.052c0-3.569-2.199-5.482-5.609-5.45c-3.251,0.032-5.514,2.487-5.514,5.737v8.765h-1.562V15.576H168.42z"/>
		</g>
		<g>
			<path fill="#3B454F" d="M73.962,44.282h-4.034v4.196H67.24V34.22c2.241,0,4.481-0.021,6.722-0.021
				C80.928,34.199,80.948,44.282,73.962,44.282z M69.928,41.818h4.034c3.442,0,3.422-5.051,0-5.051h-4.034V41.818z"/>
			<path fill="#3B454F" d="M80.53,48.479V34.22h2.668v14.259H80.53z"/>
			<path fill="#3B454F" d="M94.898,34.22h2.953v0.122l-4.827,6.926l4.971,7.129v0.081H94.98l-3.646-5.357l-3.647,5.357h-3.015
				v-0.081l4.951-7.129l-4.808-6.926V34.22h2.955l3.564,5.317L94.898,34.22z"/>
			<path fill="#3B454F" d="M109.716,48.479H99.042c0-4.746,0-9.513,0-14.259h10.675v2.607h-8.006v3.28h7.72v2.505h-7.72v3.219h8.006
				V48.479z"/>
			<path fill="#3B454F" d="M113.981,34.22v11.774h7.333v2.484h-10.022V34.22H113.981z"/>
			<path fill="#3B454F" d="M131.508,37.663c-0.488-0.815-1.833-1.589-3.381-1.589c-1.996,0-2.953,0.835-2.953,1.895
				c0,1.243,1.466,1.589,3.177,1.792c2.974,0.367,5.745,1.141,5.745,4.542c0,3.178-2.811,4.543-5.989,4.543
				c-2.913,0-5.153-0.896-6.213-3.504l2.24-1.161c0.631,1.569,2.282,2.261,4.014,2.261c1.69,0,3.279-0.59,3.279-2.139
				c0-1.344-1.406-1.894-3.3-2.097c-2.913-0.347-5.602-1.122-5.602-4.32c0-2.933,2.892-4.134,5.52-4.155
				c2.221,0,4.522,0.631,5.602,2.832L131.508,37.663z"/>
		</g>
	</g>
</g>
</svg>
