<?xml version="1.0" encoding="utf-8"?>
<!-- Generator: Adobe Illustrator 16.2.1, SVG Export Plug-In . SVG Version: 6.00 Build 0)  -->
<!DOCTYPE svg PUBLIC "-//W3C//DTD SVG 1.1//EN" "http://www.w3.org/Graphics/SVG/1.1/DTD/svg11.dtd">
<svg version="1.1" xmlns="http://www.w3.org/2000/svg" xmlns:xlink="http://www.w3.org/1999/xlink" x="0px" y="0px"
	 width="225.315px" height="57.855px" viewBox="0 0 225.315 57.855" enable-background="new 0 0 225.315 57.855"
	 xml:space="preserve">
<g id="raw" display="none">
	<circle display="inline" opacity="0.6" fill="#58595B" cx="-579.399" cy="122.894" r="198"/>
	<g display="inline" opacity="0.8">
		<polygon fill="#ED1C24" points="-446.43,229.935 -645.161,150.07 -476.628,17.906 		"/>
	</g>
	<g display="inline" opacity="0.8">
		<polygon fill="#ED1C24" points="-527.645,166.015 -727.15,88.104 -559.922,-45.708 		"/>
	</g>
	<g display="inline" opacity="0.8">
		<polygon fill="#ED1C24" points="-542.97,283.657 -728.157,176.059 -542.379,69.489 		"/>
	</g>
	<g display="inline" opacity="0.8">
		<polygon fill="#FFFFFF" points="-149.364,81.331 -149.478,81.418 -243.525,135.368 -226.667,141.952 -252.161,161.944 
			-149.715,203.114 -149.63,172.037 -134.646,177.89 		"/>
	</g>
	<g display="inline" opacity="0.8">
		<polygon fill="#ED1C24" points="-542.636,68.126 -542.639,68.094 -542.812,68.216 		"/>
	</g>
	<g display="inline" opacity="0.8">
		<polygon fill="#ED1C24" points="-542.626,68.122 -542.636,68.126 -542.63,68.186 		"/>
	</g>
	<g display="inline" opacity="0.8">
		<polygon fill="#ED1C24" points="-544.584,69.667 -544.587,69.668 -544.584,69.729 		"/>
	</g>
</g>
<g id="final">
	<g id="text_1_">
		<path fill="#FFFFFF" d="M72.48,13.589v13.606c1.668-3.467,5.005-5.027,8.55-5.027c5.755,0,10.343,3.986,10.343,11.049
			c0,7.107-4.546,11.049-10.301,11.049c-3.503,0-6.881-1.819-8.592-5.069v4.723h-2.001V13.589H72.48z M72.522,33.174
			c0,5.33,3.586,9.012,8.425,9.012c4.629,0,8.424-3.032,8.424-8.969c0-6.022-3.795-9.012-8.424-9.012
			C76.192,24.205,72.522,27.845,72.522,33.174z"/>
		<path fill="#FFFFFF" d="M93.193,33.261c0-6.803,4.854-11.136,10.876-11.136c6.023,0,10.876,4.333,10.876,11.136
			s-4.854,10.962-10.876,10.962C98.046,44.223,93.193,40.063,93.193,33.261z M112.865,33.261c0-5.546-3.943-9.143-8.796-9.143
			s-8.796,3.596-8.796,9.143c0,5.547,3.943,8.883,8.796,8.883S112.865,38.808,112.865,33.261z"/>
		<path fill="#FFFFFF" d="M116.785,33.261c0-6.803,4.853-11.136,10.876-11.136s10.875,4.333,10.875,11.136
			s-4.853,10.962-10.875,10.962S116.785,40.063,116.785,33.261z M136.457,33.261c0-5.546-3.943-9.143-8.796-9.143
			c-4.853,0-8.796,3.596-8.796,9.143c0,5.547,3.943,8.883,8.796,8.883C132.514,42.144,136.457,38.808,136.457,33.261z"/>
		<path fill="#FFFFFF" d="M142.794,22.515v3.813c1.646-2.946,4.636-4.16,7.625-4.203c5.72,0,9.663,3.51,9.663,9.446V43.92h-2.123
			V31.614c0-4.853-2.989-7.453-7.625-7.409c-4.42,0.043-7.496,3.38-7.496,7.799V43.92h-2.123V22.515H142.794z"/>
		<path fill="#FFFFFF" d="M180.922,40.93c-2.166,2.167-4.983,3.206-7.799,3.206c-6.023,0-11.005-4.16-11.005-10.919
			s4.81-10.918,11.005-10.918c2.816,0,5.633,1.083,7.799,3.206l-1.387,1.343c-1.733-1.733-4.116-2.556-6.413-2.556
			c-4.853,0-8.926,3.163-8.926,8.925c0,5.763,4.073,8.926,8.926,8.926c2.296,0,4.636-0.91,6.37-2.643L180.922,40.93z"/>
		<path fill="#FFFFFF" d="M181.682,33.261c0-6.803,4.853-11.136,10.875-11.136c6.023,0,10.876,4.333,10.876,11.136
			s-4.853,10.962-10.876,10.962C186.535,44.223,181.682,40.063,181.682,33.261z M201.353,33.261c0-5.546-3.943-9.143-8.796-9.143
			c-4.853,0-8.795,3.596-8.795,9.143c0,5.547,3.943,8.883,8.795,8.883C197.41,42.144,201.353,38.808,201.353,33.261z"/>
		<path fill="#FFFFFF" d="M208.025,22.515v3.813c1.647-2.946,4.637-4.16,7.626-4.203c5.719,0,9.664,3.51,9.664,9.446V43.92h-2.123
			V31.614c0-4.853-2.99-7.453-7.626-7.409c-4.42,0.043-7.497,3.38-7.497,7.799V43.92h-2.123V22.515H208.025z"/>
	</g>
	<g id="logo">
		<g>
			<defs>
				<path id="SVGID_1_" d="M28.928,0C12.951,0,0,12.951,0,28.928s12.951,28.928,28.928,28.928s28.928-12.951,28.928-28.928
					S44.904,0,28.928,0z M34.287,38.913L34.25,52.415L7.194,36.695l13.388-7.68L7.341,23.845l24.432-19.55l2.565,16.826l9.604-7.532
					l4.412,30.978L34.287,38.913z"/>
			</defs>
			<use xlink:href="#SVGID_1_"  overflow="visible" opacity="0.6" fill="#FFFFFF"/>
			<clipPath id="SVGID_2_">
				<use xlink:href="#SVGID_1_"  overflow="visible" opacity="0.6"/>
			</clipPath>
			<circle clip-path="url(#SVGID_2_)" fill="#FFFFFF" cx="28.928" cy="28.928" r="28.928"/>
			<circle opacity="0.6" clip-path="url(#SVGID_2_)" fill="#FFFFFF" cx="28.928" cy="28.928" r="28.928"/>
			<g opacity="0.4" clip-path="url(#SVGID_2_)">
				<path fill="#FFFFFF" d="M52.198,46.11c3.554-4.805,5.658-10.747,5.658-17.183c0-7.747-3.051-14.776-8.009-19.969L19.32,32.898
					L52.198,46.11z"/>
			</g>
			<g opacity="0.4" clip-path="url(#SVGID_2_)">
				<path fill="#FFFFFF" d="M1.004,21.37l35.485,13.857L31.133,0.092C30.404,0.037,29.67,0,28.928,0
					C15.567,0,4.328,9.06,1.004,21.37z"/>
			</g>
			<g opacity="0.4" clip-path="url(#SVGID_2_)">
				<path fill="#FFFFFF" d="M28.928,57.855c1.814,0,3.587-0.175,5.309-0.495l0.1-36.235L2.058,39.642
					C6.316,50.312,16.738,57.855,28.928,57.855z"/>
			</g>
			<path opacity="0.4" clip-path="url(#SVGID_2_)" fill="#FFFFFF" d="M31.105,0.09l3.216,21.044L49.847,8.959
				C45.048,3.934,38.462,0.638,31.105,0.09z"/>
			<path opacity="0.35" clip-path="url(#SVGID_2_)" fill="#FFFFFF" d="M42.487,3.374l6.594,46.297
				c5.409-5.257,8.774-12.605,8.774-20.743C57.855,17.852,51.628,8.234,42.487,3.374z"/>
			<path opacity="0.3" clip-path="url(#SVGID_2_)" fill="#FFFFFF" d="M28.928,0C12.951,0,0,12.951,0,28.928
				c0,0.262,0.013,0.521,0.02,0.781L36.009,0.876C33.743,0.306,31.371,0,28.928,0z"/>
			<path opacity="0.5" clip-path="url(#SVGID_2_)" fill="#FFFFFF" d="M0.246,32.642C2.07,46.863,14.21,57.855,28.928,57.855
				c3.883,0,7.584-0.771,10.967-2.158L0.246,32.642z"/>
			<path opacity="0.46" clip-path="url(#SVGID_2_)" fill="#FFFFFF" d="M34.236,57.361C41.569,56,47.931,51.88,52.198,46.11
				l-17.911-7.197L34.236,57.361z"/>
			<path clip-path="url(#SVGID_2_)" fill="#FFFFFF" d="M2.062,39.651l5.156-2.954l-6.972-4.056
				C0.559,35.087,1.177,37.436,2.062,39.651z"/>
			<path opacity="0.01" clip-path="url(#SVGID_2_)" fill="#FFFFFF" d="M0.02,29.709l7.321-5.85l-6.336-2.493
				C0.354,23.778,0,26.311,0,28.928C0,29.189,0.013,29.448,0.02,29.709z"/>
			<path opacity="0.3" clip-path="url(#SVGID_2_)" fill="#FFFFFF" d="M43.942,13.593l5.905-4.633
				c-2.131-2.232-4.612-4.125-7.36-5.586L43.942,13.593z"/>
			<path opacity="0.6" clip-path="url(#SVGID_2_)" fill="#FFFFFF" d="M36.021,0.879c-1.59-0.4-3.233-0.664-4.915-0.789l0.646,4.223
				L36.021,0.879z"/>
			<path opacity="0.3" clip-path="url(#SVGID_2_)" fill="#FFFFFF" d="M34.263,52.406l-0.025,4.954
				c1.966-0.365,3.862-0.926,5.667-1.667L34.263,52.406z"/>
			<path clip-path="url(#SVGID_2_)" fill="#FFFFFF" d="M48.354,44.566l0.732,5.099c0,0,0-0.001,0.001-0.001
				c0.549-0.535,1.077-1.092,1.583-1.667c0.031-0.035,0.062-0.071,0.093-0.107c0.5-0.574,0.98-1.166,1.434-1.779L48.354,44.566z"/>
		</g>
		<polygon opacity="0.94" fill="#FFFFFF" points="36.489,35.228 34.338,21.121 34.322,21.134 20.582,29.016 23.045,29.977 
			19.32,32.898 34.287,38.913 34.299,34.373 		"/>
	</g>
</g>
</svg>
