<?xml version="1.0" encoding="utf-8"?>
<!-- Generator: Adobe Illustrator 16.2.1, SVG Export Plug-In . SVG Version: 6.00 Build 0)  -->
<!DOCTYPE svg PUBLIC "-//W3C//DTD SVG 1.1//EN" "http://www.w3.org/Graphics/SVG/1.1/DTD/svg11.dtd">
<svg version="1.1" id="Layer_1" xmlns="http://www.w3.org/2000/svg" xmlns:xlink="http://www.w3.org/1999/xlink" x="0px" y="0px"
	 width="80.385px" height="80.385px" viewBox="0 0 80.385 80.385" enable-background="new 0 0 80.385 80.385" xml:space="preserve">
<path fill="#FAFDFE" d="M40.192,0C17.995,0,0,17.995,0,40.192c0,22.198,17.995,40.192,40.192,40.192s40.193-17.994,40.193-40.192
	C80.385,17.995,62.389,0,40.192,0z M49.328,31.217l-0.475,6.189h-6.348v11.045v3.408v1.225v0.931v0.794v0.709v0.652v0.611v0.579
	v0.554v0.533v0.463h-0.423h-0.484h-0.496h-0.511h-0.53H39.51h-0.578h-0.613h-0.66h-0.725h-0.83h-1.02h-0.598v-0.192v-0.356v-0.355
	v-0.359v-0.357v-0.361v-0.36v-0.364v-0.365v-0.369v-0.37v-0.374v-0.379v-5.895V37.406h-4.278v-6.189h4.278v-1.941v-1.9v-0.318
	c0-1.83,0.048-4.659,1.379-6.409c1.402-1.854,3.328-3.114,6.64-3.114c5.396,0,7.671,0.769,7.671,0.769l-1.07,6.339
	c0,0-1.782-0.515-3.446-0.515s-3.154,0.594-3.154,2.258v0.673v2.219v1.941H49.328z"/>
</svg>
