<?xml version="1.0" encoding="utf-8"?>
<!-- Generator: Adobe Illustrator 16.2.1, SVG Export Plug-In . SVG Version: 6.00 Build 0)  -->
<!DOCTYPE svg PUBLIC "-//W3C//DTD SVG 1.1//EN" "http://www.w3.org/Graphics/SVG/1.1/DTD/svg11.dtd">
<svg version="1.1" id="Layer_1" xmlns="http://www.w3.org/2000/svg" xmlns:xlink="http://www.w3.org/1999/xlink" x="0px" y="0px"
	 width="119px" height="119px" viewBox="0 0 119 119" enable-background="new 0 0 119 119" xml:space="preserve">
<g>
	<g>
		<defs>
			<rect id="SVGID_1_" x="-68.995" y="-67.634" width="282.743" height="255.447"/>
		</defs>
		<clipPath id="SVGID_2_">
			<use xlink:href="#SVGID_1_"  overflow="visible"/>
		</clipPath>
		<g clip-path="url(#SVGID_2_)">
			<defs>
				<rect id="SVGID_3_" x="-68.995" y="-67.634" width="282.743" height="255.447"/>
			</defs>
			<clipPath id="SVGID_4_">
				<use xlink:href="#SVGID_3_"  overflow="visible"/>
			</clipPath>
			<path clip-path="url(#SVGID_4_)" fill="#0089CF" d="M68.531,19.204h8.077c0,5.008-3.545,8.227-8.077,8.513v7.879
				c9.577-0.525,16.711-6.959,16.711-18.951V2.502H68.531V19.204z"/>
			<path clip-path="url(#SVGID_4_)" fill="#0089CF" d="M90.811,19.204h8.076c0,5.008-3.545,8.227-8.076,8.513v7.879
				c9.576-0.525,16.713-6.959,16.713-18.951V2.502H90.811V19.204z"/>
		</g>
		<path clip-path="url(#SVGID_2_)" fill="#231F20" d="M45.492,45.799H28.363l8.563-24.742L45.492,45.799z M71.995,71.946
			L47.403,2.502H26.452L1.86,71.946h17.451l4.254-12.287h26.724l4.253,12.287H71.995z"/>
	</g>
</g>
<g>
	<path d="M2.915,98.941H0.586l3.995-11.338H7.08l3.842,11.338H8.593l-0.765-2.413H3.68L2.915,98.941z M7.335,94.879l-1.581-5.082
		L4.19,94.879H7.335z"/>
	<path d="M12.078,93.129c0.102-0.799,0.272-1.225,0.595-1.615c0.595-0.697,1.632-1.07,2.992-1.07c1.7,0,2.838,0.51,3.297,1.479
		c0.221,0.425,0.306,0.969,0.306,1.802v3.468c0,0.985,0.034,1.24,0.272,1.75h-2.006l-0.238-0.765
		c-0.884,0.681-1.7,0.986-2.652,0.986c-1.683,0-3.06-1.14-3.06-2.533c0-0.917,0.544-1.7,1.547-2.176
		c0.612-0.306,1.462-0.51,2.736-0.663c0.952-0.102,1.292-0.322,1.292-0.832c0-0.629-0.612-1.071-1.513-1.071
		c-0.969,0-1.564,0.442-1.632,1.241H12.078z M17.246,94.59c-0.391,0.256-0.595,0.323-1.309,0.494
		c-1.7,0.407-2.227,0.747-2.227,1.428c0,0.594,0.578,1.002,1.445,1.002c0.612,0,1.173-0.17,1.581-0.492
		c0.374-0.289,0.51-0.629,0.51-1.293V94.59z"/>
	<path d="M23.4,87.604v11.338h-2.074V87.604H23.4z"/>
	<path d="M29.333,90.664v1.309h-1.564v4.199c0,0.629,0.034,0.815,0.17,0.985c0.136,0.187,0.425,0.289,0.765,0.289l0.578-0.017
		l0.17-0.018v1.529h-1.479c-0.765,0-0.918-0.017-1.207-0.136c-0.561-0.221-0.867-0.612-0.986-1.224
		c-0.068-0.322-0.085-0.663-0.085-1.41v-4.199h-1.156v-1.309h1.156V87.91h2.074v2.754H29.333z"/>
	<path d="M38.852,94.795c0,2.566-1.802,4.368-4.352,4.368c-2.431,0-4.232-1.853-4.232-4.368c0-2.517,1.802-4.352,4.3-4.352
		C37.05,90.443,38.852,92.278,38.852,94.795z M32.393,94.76c0,1.666,0.85,2.754,2.176,2.754c1.292,0,2.159-1.088,2.159-2.719
		c0-1.615-0.867-2.703-2.159-2.703C33.277,92.092,32.393,93.18,32.393,94.76z"/>
	<path d="M53.896,87.604v6.443c0,1.903-0.085,2.516-0.476,3.195c-0.68,1.258-2.074,1.921-4.062,1.921
		c-2.108,0-3.586-0.765-4.199-2.192c-0.255-0.629-0.323-1.225-0.323-2.924v-6.443h2.244v6.256c0,1.428,0.068,1.972,0.272,2.396
		c0.289,0.629,1.088,1.037,2.023,1.037c1.02,0,1.819-0.459,2.074-1.207c0.153-0.408,0.204-0.951,0.204-2.227v-6.256H53.896z"/>
	<path d="M58.266,90.664v1.156c0.765-1.004,1.428-1.377,2.431-1.377c1.071,0,2.074,0.577,2.533,1.461
		c0.238,0.426,0.34,0.986,0.34,1.717v5.32h-2.074v-4.775c0-0.664-0.051-0.953-0.221-1.225c-0.272-0.441-0.714-0.68-1.275-0.68
		c-1.105,0-1.734,0.748-1.734,2.057v4.623h-2.074v-8.277H58.266z"/>
	<path d="M67.786,87.553v1.887h-2.074v-1.887H67.786z M67.786,90.664v8.277h-2.074v-8.277H67.786z"/>
	<path d="M71.084,90.664l1.751,5.848l1.683-5.848h2.091l-2.737,8.277h-2.09l-2.89-8.277H71.084z"/>
	<path d="M79.346,95.287c0.154,1.445,0.867,2.227,2.041,2.227c0.815,0,1.41-0.356,1.784-1.054h2.142
		c-0.492,1.666-2.006,2.703-3.893,2.703c-2.465,0-4.198-1.802-4.198-4.352c0-2.601,1.632-4.368,4.028-4.368
		c2.533,0,4.097,1.818,4.148,4.844H79.346z M83.256,93.928c-0.152-1.207-0.833-1.887-1.938-1.887c-1.055,0-1.751,0.68-1.921,1.887
		H83.256z"/>
	<path d="M89.189,90.664v1.139c0.561-0.884,1.24-1.309,2.057-1.309c0.152,0,0.271,0,0.544,0.033v1.785
		c-0.136-0.018-0.289-0.018-0.356-0.018c-1.395,0-2.244,0.936-2.244,2.448v4.198h-2.074v-8.277H89.189z"/>
	<path d="M97.858,93.129c-0.204-0.782-0.731-1.156-1.649-1.156c-0.883,0-1.495,0.391-1.495,0.951c0,0.256,0.17,0.477,0.442,0.596
		c0.306,0.136,0.68,0.221,1.836,0.425c1.189,0.204,1.699,0.374,2.158,0.731c0.492,0.408,0.781,1.037,0.781,1.784
		c0,1.615-1.41,2.703-3.518,2.703c-2.227,0-3.587-1.037-3.773-2.873h1.903c0.17,0.918,0.765,1.343,1.853,1.343
		c0.952,0,1.581-0.408,1.581-1.037c0-0.51-0.306-0.696-1.411-0.883c-1.309-0.238-2.209-0.511-2.736-0.851
		c-0.663-0.425-1.003-1.037-1.003-1.751c0-1.563,1.376-2.668,3.314-2.668c2.022,0,3.366,1.02,3.536,2.686H97.858z"/>
	<path d="M103.553,87.553v1.887h-2.073v-1.887H103.553z M103.553,90.664v8.277h-2.073v-8.277H103.553z"/>
	<path d="M109.486,90.664v1.309h-1.564v4.199c0,0.629,0.034,0.815,0.17,0.985c0.137,0.187,0.426,0.289,0.766,0.289l0.578-0.017
		l0.17-0.018v1.529h-1.479c-0.765,0-0.918-0.017-1.206-0.136c-0.562-0.221-0.867-0.612-0.986-1.224
		c-0.068-0.322-0.086-0.663-0.086-1.41v-4.199h-1.155v-1.309h1.155V87.91h2.074v2.754H109.486z"/>
	<path d="M118.394,90.664l-3.009,8.906c-0.34,0.986-0.714,1.547-1.275,1.854c-0.476,0.255-0.696,0.289-1.784,0.289h-1.054v-1.615
		h0.611c0.477,0,0.748-0.051,0.952-0.204c0.289-0.187,0.476-0.577,0.476-0.985c0-0.307-0.187-1.055-0.391-1.615l-2.566-6.629h2.26
		l1.904,6.102l1.751-6.102H118.394z"/>
	<path fill="#9E9A97" d="M1.793,103.604h3.875c1.564,0,2.142,0.086,2.89,0.442c1.768,0.833,2.839,2.856,2.839,5.372
		c0,2.719-1.19,4.674-3.179,5.27c-0.663,0.203-1.207,0.254-2.363,0.254H1.793V103.604z M5.822,113.157
		c1.139,0,1.598-0.119,2.176-0.544c0.782-0.561,1.156-1.598,1.156-3.094c0-1.938-0.629-3.298-1.785-3.824
		c-0.544-0.256-0.918-0.307-2.022-0.307H4.037v7.769H5.822z"/>
	<path fill="#9E9A97" d="M14.9,111.287c0.153,1.445,0.867,2.227,2.04,2.227c0.816,0,1.411-0.356,1.785-1.054h2.142
		c-0.493,1.666-2.005,2.703-3.893,2.703c-2.464,0-4.198-1.802-4.198-4.352c0-2.601,1.632-4.368,4.028-4.368
		c2.533,0,4.097,1.818,4.148,4.844H14.9z M18.81,109.928c-0.153-1.207-0.833-1.887-1.938-1.887c-1.054,0-1.75,0.68-1.92,1.887H18.81
		z"/>
	<path fill="#9E9A97" d="M27.292,109.129c-0.204-0.782-0.731-1.156-1.649-1.156c-0.884,0-1.496,0.391-1.496,0.951
		c0,0.256,0.17,0.477,0.442,0.596c0.306,0.136,0.68,0.221,1.836,0.425c1.19,0.204,1.7,0.374,2.159,0.731
		c0.493,0.408,0.782,1.037,0.782,1.784c0,1.615-1.411,2.703-3.519,2.703c-2.227,0-3.586-1.037-3.773-2.873h1.904
		c0.17,0.918,0.765,1.343,1.853,1.343c0.952,0,1.581-0.408,1.581-1.037c0-0.51-0.306-0.696-1.411-0.883
		c-1.309-0.238-2.209-0.511-2.736-0.851c-0.663-0.425-1.003-1.037-1.003-1.751c0-1.563,1.377-2.668,3.314-2.668
		c2.023,0,3.366,1.02,3.536,2.686H27.292z"/>
	<path fill="#9E9A97" d="M32.987,103.553v1.887h-2.074v-1.887H32.987z M32.987,106.664v8.277h-2.074v-8.277H32.987z"/>
	<path fill="#9E9A97" d="M42.812,106.664v7.326c0,1.274-0.085,1.699-0.493,2.244c-0.663,0.918-1.853,1.428-3.383,1.428
		c-1.258,0-2.261-0.323-2.958-0.952c-0.425-0.374-0.629-0.782-0.765-1.462h2.108c0.17,0.646,0.646,0.935,1.496,0.935
		c0.816,0,1.411-0.272,1.7-0.799c0.187-0.34,0.238-0.646,0.238-1.394v-0.766c-0.595,0.697-1.377,1.055-2.346,1.055
		c-2.21,0-3.706-1.564-3.706-3.876c0-2.329,1.479-3.96,3.604-3.96c1.105,0,2.04,0.441,2.583,1.223v-1.002H42.812z M36.829,110.42
		c0,1.377,0.782,2.295,1.955,2.295c1.275,0,2.04-0.867,2.04-2.295c0-1.377-0.799-2.328-1.989-2.328
		C37.611,108.092,36.829,109.01,36.829,110.42z"/>
	<path fill="#9E9A97" d="M47.029,106.664v1.156c0.765-1.004,1.428-1.377,2.431-1.377c1.071,0,2.074,0.577,2.533,1.461
		c0.238,0.426,0.34,0.986,0.34,1.717v5.32h-2.074v-4.775c0-0.664-0.051-0.953-0.221-1.225c-0.272-0.441-0.714-0.68-1.275-0.68
		c-1.105,0-1.734,0.748-1.734,2.057v4.623h-2.074v-8.277H47.029z"/>
	<path fill="#9E9A97" d="M58.861,103.604h8.108v1.785h-5.864v2.924h5.031v1.785h-5.031v4.844h-2.244V103.604z"/>
	<path fill="#9E9A97" d="M68.041,109.129c0.102-0.799,0.272-1.225,0.595-1.615c0.595-0.697,1.632-1.07,2.992-1.07
		c1.7,0,2.839,0.51,3.298,1.479c0.221,0.425,0.306,0.969,0.306,1.802v3.468c0,0.985,0.034,1.24,0.272,1.75h-2.006l-0.238-0.765
		c-0.884,0.681-1.7,0.986-2.652,0.986c-1.683,0-3.06-1.14-3.06-2.533c0-0.917,0.544-1.7,1.547-2.176
		c0.612-0.306,1.462-0.51,2.736-0.663c0.952-0.102,1.292-0.322,1.292-0.832c0-0.629-0.611-1.071-1.512-1.071
		c-0.969,0-1.564,0.442-1.632,1.241H68.041z M73.209,110.59c-0.391,0.256-0.595,0.323-1.309,0.494
		c-1.7,0.407-2.227,0.747-2.227,1.428c0,0.594,0.578,1.002,1.445,1.002c0.612,0,1.173-0.17,1.581-0.492
		c0.374-0.289,0.51-0.629,0.51-1.293V110.59z"/>
	<path fill="#9E9A97" d="M84.734,112.018c-0.289,1.955-1.717,3.146-3.773,3.146c-2.38,0-4.08-1.802-4.08-4.335
		s1.7-4.385,4.046-4.385c1.938,0,3.264,1.088,3.723,3.025h-2.022c-0.272-0.918-0.816-1.377-1.648-1.377
		c-1.19,0-1.973,1.104-1.973,2.754c0,1.648,0.766,2.668,1.988,2.668c0.936,0,1.547-0.526,1.752-1.496H84.734z"/>
	<path fill="#9E9A97" d="M90.141,106.664v1.309h-1.564v4.199c0,0.629,0.035,0.815,0.171,0.985c0.136,0.187,0.425,0.289,0.765,0.289
		l0.578-0.017l0.17-0.018v1.529h-1.479c-0.766,0-0.918-0.017-1.207-0.136c-0.561-0.221-0.867-0.612-0.986-1.224
		c-0.068-0.322-0.085-0.663-0.085-1.41v-4.199h-1.155v-1.309h1.155v-2.754h2.073v2.754H90.141z"/>
	<path fill="#9E9A97" d="M99.66,110.795c0,2.566-1.802,4.368-4.352,4.368c-2.431,0-4.232-1.853-4.232-4.368
		c0-2.517,1.802-4.352,4.301-4.352C97.858,106.443,99.66,108.278,99.66,110.795z M93.201,110.76c0,1.666,0.85,2.754,2.176,2.754
		c1.291,0,2.158-1.088,2.158-2.719c0-1.615-0.867-2.703-2.158-2.703C94.084,108.092,93.201,109.18,93.201,110.76z"/>
	<path fill="#9E9A97" d="M103.451,106.664v1.139c0.561-0.884,1.241-1.309,2.057-1.309c0.153,0,0.272,0,0.545,0.033v1.785
		c-0.137-0.018-0.289-0.018-0.357-0.018c-1.395,0-2.244,0.936-2.244,2.448v4.198h-2.074v-8.277H103.451z"/>
	<path fill="#9E9A97" d="M114.857,106.664l-3.008,8.906c-0.34,0.986-0.715,1.547-1.275,1.854c-0.477,0.255-0.697,0.289-1.785,0.289
		h-1.054v-1.615h0.612c0.476,0,0.748-0.051,0.951-0.204c0.289-0.187,0.477-0.577,0.477-0.985c0-0.307-0.188-1.055-0.391-1.615
		l-2.567-6.629h2.261l1.904,6.102l1.75-6.102H114.857z"/>
</g>
</svg>
