<?xml version="1.0" encoding="utf-8"?>
<!-- Generator: Adobe Illustrator 16.2.1, SVG Export Plug-In . SVG Version: 6.00 Build 0)  -->
<!DOCTYPE svg PUBLIC "-//W3C//DTD SVG 1.1//EN" "http://www.w3.org/Graphics/SVG/1.1/DTD/svg11.dtd">
<svg version="1.1" id="Layer_1" xmlns="http://www.w3.org/2000/svg" xmlns:xlink="http://www.w3.org/1999/xlink" x="0px" y="0px"
	 width="80.385px" height="80.385px" viewBox="0 0 80.385 80.385" enable-background="new 0 0 80.385 80.385" xml:space="preserve">
<g>
	<path fill="#FAFDFE" d="M42.795,34.805v-0.094c-0.021,0.031-0.043,0.063-0.062,0.094H42.795z"/>
	<path fill="#FAFDFE" d="M40.192,0C17.995,0,0,17.995,0,40.192C0,62.39,17.995,80.385,40.192,80.385
		c22.198,0,40.193-17.995,40.193-40.193C80.385,17.995,62.39,0,40.192,0z M28.354,58.718h-9.297v-27.97h9.297V58.718z M23.707,26.93
		h-0.062c-3.119,0-5.137-2.148-5.137-4.833c0-2.744,2.078-4.833,5.259-4.833s5.138,2.089,5.198,4.833
		C28.965,24.782,26.948,26.93,23.707,26.93z M61.876,58.718h-9.296V43.755c0-3.76-1.346-6.325-4.71-6.325
		c-2.567,0-4.099,1.729-4.77,3.4c-0.245,0.597-0.306,1.432-0.306,2.268v15.62h-9.297c0,0,0.121-25.347,0-27.97h9.297v3.963
		c1.234-1.906,3.443-4.619,8.378-4.619c6.117,0,10.703,3.997,10.703,12.588V58.718z"/>
</g>
</svg>
