<?xml version="1.0" encoding="utf-8"?>
<!-- Generator: Adobe Illustrator 16.2.1, SVG Export Plug-In . SVG Version: 6.00 Build 0)  -->
<!DOCTYPE svg PUBLIC "-//W3C//DTD SVG 1.1//EN" "http://www.w3.org/Graphics/SVG/1.1/DTD/svg11.dtd">
<svg version="1.1" id="Layer_1" xmlns="http://www.w3.org/2000/svg" xmlns:xlink="http://www.w3.org/1999/xlink" x="0px" y="0px"
	 width="83.722px" height="37.263px" viewBox="0 0 83.722 37.263" enable-background="new 0 0 83.722 37.263" xml:space="preserve">
<path d="M12.557,7.955c0.995,0.562,1.802,1.34,2.422,2.335V0.213h5.6v28.523h-5.368v-2.926c-0.788,1.253-1.686,2.164-2.693,2.732
	c-1.008,0.568-2.261,0.853-3.759,0.853c-2.468,0-4.544-0.998-6.23-2.994S0,21.845,0,18.719c0-3.604,0.83-6.44,2.49-8.507
	c1.66-2.067,3.878-3.101,6.656-3.101C10.425,7.111,11.562,7.393,12.557,7.955z M13.913,23.001c0.814-1.163,1.221-2.667,1.221-4.515
	c0-2.584-0.652-4.431-1.957-5.542c-0.801-0.672-1.731-1.008-2.791-1.008c-1.615,0-2.8,0.61-3.556,1.831s-1.133,2.736-1.133,4.544
	c0,1.951,0.384,3.511,1.153,4.68c0.769,1.169,1.935,1.754,3.498,1.754S13.099,24.164,13.913,23.001z"/>
<path d="M28.493,20.114c0,1.124,0.18,2.054,0.542,2.791c0.67,1.356,1.888,2.035,3.653,2.035c1.083,0,2.027-0.371,2.832-1.114
	c0.806-0.743,1.208-1.812,1.208-3.207c0-1.847-0.747-3.081-2.241-3.701c-0.85-0.349-2.189-0.523-4.018-0.523V12.44
	c1.789-0.026,3.038-0.2,3.746-0.523c1.223-0.542,1.834-1.64,1.834-3.294c0-1.072-0.312-1.944-0.938-2.616
	C34.487,5.335,33.608,5,32.474,5c-1.301,0-2.258,0.414-2.87,1.24c-0.612,0.827-0.905,1.931-0.879,3.313h-5.154
	c0.051-1.396,0.29-2.719,0.716-3.973c0.452-1.098,1.162-2.112,2.129-3.042c0.723-0.659,1.581-1.163,2.574-1.512
	c0.994-0.349,2.213-0.523,3.659-0.523c2.684,0,4.849,0.694,6.494,2.083c1.646,1.389,2.468,3.252,2.468,5.59
	c0,1.654-0.491,3.049-1.473,4.186c-0.62,0.71-1.267,1.195-1.938,1.454c0.504,0,1.227,0.433,2.17,1.298
	c1.408,1.305,2.112,3.088,2.112,5.348c0,2.377-0.823,4.467-2.468,6.269c-1.646,1.802-4.082,2.703-7.308,2.703
	c-3.975,0-6.736-1.298-8.285-3.895c-0.813-1.382-1.265-3.19-1.355-5.426H28.493z"/>
<path d="M45.572,22.943h5.871v5.794h-5.871V22.943z"/>
<path d="M53.292,32.787c0.31,0.026,0.53,0.042,0.659,0.048c0.129,0.006,0.246,0.01,0.349,0.01c0.542,0,0.953-0.132,1.23-0.397
	c0.277-0.265,0.417-0.779,0.417-1.541V7.712h5.522v23.292c0,2.132-0.42,3.708-1.259,4.728c-0.84,1.021-2.487,1.531-4.941,1.531
	c-0.168,0-0.417-0.006-0.746-0.019c-0.329-0.013-0.74-0.026-1.23-0.039V32.787z M61.469,5.096h-5.522V0h5.522V5.096z"/>
<path d="M70.003,21.994c0.117,0.982,0.37,1.679,0.759,2.093c0.688,0.736,1.959,1.104,3.816,1.104c1.09,0,1.957-0.162,2.6-0.484
	c0.642-0.323,0.963-0.808,0.963-1.454c0-0.62-0.259-1.091-0.776-1.415c-0.518-0.323-2.443-0.878-5.777-1.667
	c-2.4-0.594-4.091-1.337-5.073-2.229c-0.982-0.878-1.473-2.144-1.473-3.798c0-1.95,0.767-3.626,2.301-5.028
	c1.534-1.401,3.693-2.103,6.476-2.103c2.641,0,4.793,0.526,6.457,1.579c1.664,1.053,2.619,2.872,2.865,5.455h-5.522
	c-0.078-0.71-0.279-1.272-0.603-1.686c-0.609-0.749-1.646-1.124-3.109-1.124c-1.205,0-2.063,0.188-2.575,0.562
	c-0.512,0.375-0.768,0.814-0.768,1.318c0,0.633,0.272,1.092,0.816,1.375c0.544,0.297,2.466,0.808,5.766,1.531
	c2.2,0.517,3.849,1.298,4.947,2.345c1.085,1.059,1.628,2.383,1.628,3.972c0,2.093-0.78,3.801-2.34,5.125
	c-1.56,1.324-3.971,1.986-7.232,1.986c-3.327,0-5.783-0.701-7.369-2.102c-1.586-1.402-2.378-3.188-2.378-5.358H70.003z"/>
</svg>
