<?xml version="1.0" encoding="utf-8"?>
<!-- Generator: Adobe Illustrator 16.2.1, SVG Export Plug-In . SVG Version: 6.00 Build 0)  -->
<!DOCTYPE svg PUBLIC "-//W3C//DTD SVG 1.1//EN" "http://www.w3.org/Graphics/SVG/1.1/DTD/svg11.dtd">
<svg version="1.1" id="Layer_1" xmlns="http://www.w3.org/2000/svg" xmlns:xlink="http://www.w3.org/1999/xlink" x="0px" y="0px"
	 width="80.385px" height="80.385px" viewBox="0 0 80.385 80.385" enable-background="new 0 0 80.385 80.385" xml:space="preserve">
<path fill="#FAFDFE" d="M40.192,0C17.995,0,0,17.995,0,40.192C0,62.39,17.995,80.385,40.192,80.385S80.385,62.39,80.385,40.192
	C80.385,17.995,62.39,0,40.192,0z M61.558,31.455c0.019,0.42,0.028,0.843,0.028,1.268c0,12.945-9.854,27.873-27.873,27.873
	c-5.533,0-10.683-1.621-15.019-4.401c0.767,0.091,1.547,0.138,2.337,0.138c4.593,0,8.815-1.566,12.167-4.195
	c-4.285-0.078-7.904-2.91-9.15-6.802c0.599,0.114,1.212,0.175,1.844,0.175c0.892,0,1.758-0.119,2.581-0.344
	c-4.481-0.899-7.858-4.859-7.858-9.605c0-0.042,0-0.083,0.001-0.124c1.319,0.734,2.83,1.174,4.437,1.226
	c-2.63-1.756-4.359-4.755-4.359-8.154c0-1.795,0.484-3.478,1.327-4.925c4.832,5.927,12.051,9.828,20.193,10.236
	c-0.168-0.717-0.255-1.465-0.255-2.232c0-5.41,4.386-9.796,9.797-9.796c2.817,0,5.362,1.19,7.15,3.093
	c2.231-0.439,4.328-1.254,6.221-2.377c-0.731,2.288-2.284,4.207-4.307,5.42c1.981-0.236,3.87-0.763,5.627-1.542
	C65.133,28.348,63.47,30.073,61.558,31.455z"/>
</svg>
