<?xml version="1.0" encoding="utf-8"?>
<!-- Generator: Adobe Illustrator 16.2.1, SVG Export Plug-In . SVG Version: 6.00 Build 0)  -->
<!DOCTYPE svg PUBLIC "-//W3C//DTD SVG 1.1//EN" "http://www.w3.org/Graphics/SVG/1.1/DTD/svg11.dtd">
<svg version="1.1" id="Layer_1" xmlns="http://www.w3.org/2000/svg" xmlns:xlink="http://www.w3.org/1999/xlink" x="0px" y="0px"
	 width="71.565px" height="50.67px" viewBox="0 0 71.565 50.67" enable-background="new 0 0 71.565 50.67" xml:space="preserve">
<polygon fill="#434343" points="30.764,39.812 19.906,39.812 19.906,47.051 14.477,47.051 14.477,50.67 36.193,50.67 36.193,47.051 
	30.764,47.051 "/>
<path fill="#434343" d="M70.197,35.339h-4.749V23.586c0-1.526-1.129-2.655-2.655-2.655H50.67V3.393C50.67,1.527,49.143,0,47.278,0
	H3.393C1.527,0,0,1.527,0,3.393V34.61c0,1.866,1.527,3.393,3.393,3.393h36.564v10.012c0,1.527,1.128,2.655,2.655,2.655h20.181
	c0.066,0,0.127-0.014,0.192-0.018c0.033,0.002,0.06,0.018,0.094,0.018h7.118c0.787,0,1.369-0.583,1.369-1.37V36.708
	C71.565,35.921,70.984,35.339,70.197,35.339z M68.28,36.434v0.547h-2.833h-0.453v-0.547h0.453H68.28z M39.957,23.586v3.559H3.619
	V3.619h43.432v17.312h-4.439C41.085,20.931,39.957,22.06,39.957,23.586z M42.081,44.298v-6.295V27.145v-3.028h4.971h3.619h12.653
	v11.222h-0.245c-0.787,0-1.369,0.582-1.369,1.369v7.59H42.081z M52.702,49.077c-0.896,0-1.593-0.697-1.593-1.593
	c0-0.863,0.697-1.593,1.593-1.593c0.862,0,1.593,0.73,1.593,1.593C54.295,48.38,53.564,49.077,52.702,49.077z M66.638,49.849
	c-0.462,0-0.821-0.359-0.821-0.822c0-0.444,0.359-0.82,0.821-0.82c0.445,0,0.821,0.376,0.821,0.82
	C67.459,49.489,67.083,49.849,66.638,49.849z M70.471,47.385h-5.023h-2.643v-3.087v-6.221h0.518h2.125h5.023V47.385z"/>
</svg>
