<?xml version="1.0" encoding="utf-8"?>
<!-- Generator: Adobe Illustrator 16.2.1, SVG Export Plug-In . SVG Version: 6.00 Build 0)  -->
<!DOCTYPE svg PUBLIC "-//W3C//DTD SVG 1.1//EN" "http://www.w3.org/Graphics/SVG/1.1/DTD/svg11.dtd">
<svg version="1.1" id="Layer_1" xmlns="http://www.w3.org/2000/svg" xmlns:xlink="http://www.w3.org/1999/xlink" x="0px" y="0px"
	 width="80.001px" height="80px" viewBox="0 0 80.001 80" enable-background="new 0 0 80.001 80" xml:space="preserve">
<g>
	<rect x="26.662" y="31.656" fill="#FAFDFE" width="4.447" height="4.446"/>
	<rect x="32.59" y="37.584" fill="#FAFDFE" width="4.446" height="4.446"/>
	<rect x="32.59" y="31.656" fill="#FAFDFE" width="4.446" height="4.446"/>
	<rect x="26.662" y="37.584" fill="#FAFDFE" width="4.447" height="4.446"/>
	<path fill="#FAFDFE" d="M40,0C17.909,0,0,17.909,0,40s17.909,40,40,40c22.092,0,40.001-17.908,40.001-40S62.092,0,40,0z
		 M47.411,58.333H19.252V33.138L32.59,16.835l14.821,16.303V58.333z M60.749,58.333H48.893V33.138h11.856V58.333z M49.125,31.656
		L35.554,16.835h10.375l4.446,4.446v-4.446h5.929V27.21l4.445,4.446H49.125z"/>
</g>
</svg>
