<?xml version="1.0" encoding="utf-8"?>
<!-- Generator: Adobe Illustrator 16.2.1, SVG Export Plug-In . SVG Version: 6.00 Build 0)  -->
<!DOCTYPE svg PUBLIC "-//W3C//DTD SVG 1.1//EN" "http://www.w3.org/Graphics/SVG/1.1/DTD/svg11.dtd">
<svg version="1.1" id="Layer_1" xmlns="http://www.w3.org/2000/svg" xmlns:xlink="http://www.w3.org/1999/xlink" x="0px" y="0px"
	 width="418.873px" height="102.597px" viewBox="0 0 418.873 102.597" enable-background="new 0 0 418.873 102.597"
	 xml:space="preserve">
<g>
	<g>
		<g>
			<g>
				<polygon fill="#131B28" points="179.117,36.937 179.118,36.933 176.436,46.437 				"/>
				<polygon fill="#131B28" points="192.909,57.569 189.954,57.552 189.954,57.552 				"/>
				<polygon fill="#131B28" points="192.152,71.763 192.155,71.763 174.45,71.827 				"/>
				<polygon fill="#131B28" points="195.865,57.587 192.909,57.569 195.865,57.587 				"/>
				
					<rect x="189.17" y="64.675" transform="matrix(-0.2536 0.9673 -0.9673 -0.2536 307.3309 -107.7867)" fill="#131B28" width="12.159" height="0"/>
			</g>
			<g>
				<polygon fill="#131B28" points="258.889,16.392 253.144,43.399 258.889,16.392 				"/>
				<polygon fill="#131B28" points="244.118,16.392 239.756,36.567 244.118,16.39 				"/>
				<g>
					<path fill="#131B28" d="M257.907,15.177h-12.285c-0.682,0-1.358,0.547-1.504,1.213l-4.361,20.178l-4.361,20.178
						c-0.145,0.666-0.82,1.211-1.502,1.211h-7.454h-1.241c-8.603,0-7.607-5.949-5.846-14.102c0.018-0.082,0.035-0.162,0.053-0.246
						l0.193-1.027c0.012-0.066,0.025-0.133,0.036-0.193l0.393-2.092l0.421-2.242c0.128-0.676,0.322-1.664,0.449-2.285l1.982-9.688
						l1.984-9.688c0.137-0.668-0.311-1.217-0.992-1.217h-12.609c-0.682,0-1.356,0.549-1.496,1.215l-2.711,12.863l-2.711,12.861
						c-0.002,0.006-0.003,0.014-0.004,0.02l-0.252,1.195c-3.123,14.258-2.295,27.854,14.678,28.279
						c0.277,0.008,0.492,0.01,0.492,0.01H245.9c0.682,0,1.356-0.547,1.499-1.215l5.745-27.006l5.745-27.008
						C259.031,15.724,258.588,15.177,257.907,15.177z"/>
				</g>
			</g>
			<g>
				<path fill="#131B28" d="M306.912,58.097c0.683,0,1.129,0.547,0.992,1.215l-1.193,5.83"/>
				<polygon fill="#131B28" points="305.518,70.976 306.71,65.142 305.517,70.978 				"/>
				<path fill="#131B28" d="M304.028,72.202c0.002,0,0.004-0.002,0.006-0.002c-3.615,0.029-14.479,0.111-22.645,0.111
					C291.327,72.312,304.028,72.202,304.028,72.202z"/>
				<path fill="#131B28" d="M274.055,50.587c-0.01-0.639,0.717-1.738,1.399-1.738l-1.534-0.025
					C273.229,55.776,274.055,50.587,274.055,50.587z"/>
				<g>
					<path fill="#131B28" d="M282.502,72.31c-0.078,0-0.158,0-0.236,0.002C282.344,72.31,282.424,72.31,282.502,72.31z"/>
					<path fill="#131B28" d="M306.912,58.097c0.683,0,1.129,0.547,0.992,1.215l-1.193,5.83l-0.194,0.951"/>
					<path fill="#131B28" d="M288.318,72.296c-0.017,0-0.033,0-0.05,0C288.285,72.296,288.301,72.296,288.318,72.296z"/>
					<path fill="#131B28" d="M285.304,72.306c-0.06,0-0.116,0-0.175,0C285.188,72.306,285.245,72.306,285.304,72.306z"/>
					<path fill="#131B28" d="M284.385,72.308c-0.098,0-0.193,0-0.289,0.002C284.192,72.308,284.288,72.308,284.385,72.308z"/>
					<path fill="#131B28" d="M283.448,72.31c-0.086,0-0.17,0-0.254,0C283.278,72.31,283.362,72.31,283.448,72.31z"/>
					<path fill="#131B28" d="M285.129,72.306c-0.249,0-0.498,0.002-0.744,0.002C284.631,72.308,284.88,72.306,285.129,72.306z"/>
					<path fill="#131B28" d="M288.268,72.296c-0.994,0.004-1.986,0.008-2.964,0.01C286.282,72.304,287.275,72.3,288.268,72.296z"/>
					<path fill="#131B28" d="M304.034,72.2L304.034,72.2c-2.648,0.021-9.191,0.07-15.716,0.096
						C294.839,72.272,301.383,72.222,304.034,72.2z"/>
					<polygon fill="#131B28" points="305.517,70.978 306.516,66.093 305.516,70.981 					"/>
					<path fill="#131B28" d="M284.096,72.31c-0.218,0-0.434,0-0.648,0C283.663,72.31,283.878,72.31,284.096,72.31z"/>
					<path fill="#131B28" d="M282.266,72.312c-0.295,0-0.588,0-0.877,0C281.678,72.312,281.971,72.312,282.266,72.312z"/>
					<path fill="#131B28" d="M283.194,72.31c-0.232,0-0.463,0-0.691,0C282.731,72.31,282.961,72.31,283.194,72.31z"/>
				</g>
			</g>
			<g>
				<path fill="#131B28" d="M103.486,50.733l1.908-8.459l-2.182,9.67l-2.094,9.85l1.835-8.635
					C103.095,52.491,103.335,51.399,103.486,50.733z"/>
				<g>
					<path fill="#131B28" d="M126.331,15.034h-13.491c-0.683,0-1.363,0.545-1.516,1.209l-1.279,5.646l-1.279,5.648
						c-0.15,0.664,0.284,1.209,0.967,1.209h13.596c0.682,0,1.359-0.545,1.506-1.211l1.236-5.646l1.236-5.643
						c0-0.002,0-0.002,0-0.002C127.452,15.579,127.013,15.034,126.331,15.034z"/>
				</g>
				<polygon fill="#131B28" points="123.394,33.817 123.394,33.815 119.437,52.122 				"/>
				<path fill="#131B28" d="M84.199,94.472c0,0,6.801,0.088,11.124,0.088c-3.284,0-8.708-0.061-11.13-0.09
					C84.195,94.47,84.197,94.472,84.199,94.472z"/>
				<polygon fill="#131B28" points="107.304,33.815 105.394,42.274 107.304,33.815 				"/>
				<g>
					<path fill="#131B28" d="M122.416,32.604h-13.598c-0.682,0-1.363,0.545-1.514,1.211l-1.91,8.459l-1.908,8.459
						c-0.15,0.666-0.391,1.758-0.532,2.426l-1.835,8.635l-1.834,8.635c-0.143,0.666-0.436,1.742-0.654,2.389
						c0,0-2.54,7.559-6.811,7.473c-0.182-0.004-0.358-0.006-0.533-0.01c-2.069-0.039-3.695-0.068-3.695-0.068
						c-0.001,0-0.002,0-0.003,0c-0.681-0.01-1.365,0.521-1.524,1.184l0,0l-1.41,5.928l-1.408,5.926
						c-0.158,0.662,0.27,1.209,0.947,1.221c2.422,0.029,7.846,0.09,11.13,0.09c10.667,0,16.29-5.91,19.896-22.918l4.219-19.52
						l3.957-18.307C123.538,33.149,123.097,32.604,122.416,32.604z"/>
				</g>
			</g>
		</g>
		<g>
			<g>
				<path fill="#131B28" d="M315.579,71.62c-0.682,0-1.124-0.547-0.98-1.215l10.229-47.912"/>
				<polygon fill="#131B28" points="329.795,70.403 333.932,49.954 329.795,70.403 				"/>
				<g>
					<path fill="#131B28" d="M314.748,71.013c-0.083-0.334-0.034-1.152,0.11-1.82l4.854-22.742l-5.114,23.955
						c-0.144,0.668,0.299,1.215,0.98,1.215h1.242C316.138,71.62,314.83,71.347,314.748,71.013z"/>
					<path fill="#131B28" d="M328.984,71.347c-0.371,0.15-1.234,0.273-1.917,0.273h1.242c0.682,0,1.352-0.547,1.486-1.217
						l0.246-1.215C329.906,69.856,329.356,71.196,328.984,71.347z"/>
					<path fill="#131B28" d="M331.863,60.179l1.826-9.025c-0.001,0.006-0.002,0.014-0.003,0.018L331.863,60.179z"/>
					<path fill="#131B28" d="M372.222,25.702l0.563,2.328c0.155,0.666-0.275,1.207-0.956,1.209"/>
					<polygon fill="#131B28" points="330.042,69.188 331.863,60.179 330.042,69.188 					"/>
					<polygon fill="#131B28" points="371.665,23.317 371.665,23.317 372.222,25.702 					"/>
					<path fill="#131B28" d="M333.689,51.153c0.136-0.668,0.36-1.75,0.502-2.412l1.95-9.137l-2.209,10.35L333.689,51.153z"/>
					<path fill="#131B28" d="M324.992,21.708c-0.136,0.645-0.31,1.459-0.425,1.998l-4.854,22.744l5.114-23.957L324.992,21.708z"/>
					<g>
						<g>
							<path fill="#131B28" d="M372.786,28.03l-0.563-2.328l-0.558-2.385l-0.282-1.207c-1.104-4.291-4.347-6.768-11.387-6.768
								l-10.96-0.012l-10.094-0.012h-0.866h-10.491c-0.682,0-1.356,0.545-1.497,1.213c-0.001,0-0.001,0-0.001,0l-0.502,2.373
								l-0.593,2.803l-0.165,0.785l-5.114,23.957l-4.854,22.742c-0.145,0.668-0.193,1.486-0.11,1.82
								c0.082,0.334,1.391,0.607,2.073,0.607h10.246c0.683,0,1.546-0.123,1.917-0.273c0.372-0.15,0.922-1.49,1.058-2.158l1.821-9.01
								l1.823-9.008c0.001-0.004,0.002-0.012,0.003-0.018l0.243-1.199l2.209-10.35l1.951-9.141c0.145-0.664,0.816-1.207,1.497-1.209
								l32.24-0.016C372.51,29.237,372.941,28.696,372.786,28.03z"/>
						</g>
					</g>
				</g>
			</g>
			<g>
				<path fill="#131B28" d="M414.285,6.979c-0.683,0.005-1.799,0.009-2.481,0.009h-10.319c-0.683,0-1.557,0.461-1.941,1.024
					l-22.818,33.43c-0.386,0.564-0.825,0.48-0.977-0.184l-1.679-7.365c-0.151-0.666-0.835-1.209-1.517-1.209h-14.67
					c-0.683,0-1.087,0.535-0.9,1.191l6.573,23.027c0.188,0.656,0.201,1.734,0.032,2.395l-2.865,11.145
					c-0.17,0.662,0.25,1.203,0.933,1.203h14.498c0.682,0,1.379-0.541,1.548-1.203l2.866-11.145c0.169-0.66,0.644-1.648,1.055-2.193
					l37.045-49.167c0.411-0.545,0.188-0.988-0.493-0.983L414.285,6.979z"/>
			</g>
		</g>
		<g>
			<g>
				<path fill="#131B28" d="M292.29,14.353c-23.873,0-29.529,14.49-32.703,29.115c-3.174,14.906-2.9,28.844,21.803,28.844h0.877
					c0.078-0.002,0.158-0.002,0.236-0.002c0.229,0,0.459,0,0.691,0c0.084,0,0.168,0,0.254,0c0.215,0,0.431,0,0.648,0
					c0.096-0.002,0.191-0.002,0.289-0.002c0.246,0,0.495-0.002,0.744-0.002c0.059,0,0.115,0,0.175,0
					c0.978-0.002,1.97-0.006,2.964-0.01h0.05c6.524-0.025,13.067-0.074,15.718-0.096c0.678-0.01,1.341-0.557,1.48-1.219l1-4.889
					l0.194-0.951l1.193-5.83c0.137-0.668-0.31-1.215-0.992-1.215h-22.209c-8.833,0-11.456-2.348-10.489-9.248h35.502l-0.003,0.004
					c0.009,0,0.017-0.004,0.024-0.004c0.564-0.01,1.086-0.398,1.293-0.916c0.039-0.1,0.072-0.203,0.086-0.311l-0.004,0.004
					C316.383,27.743,314.872,14.353,292.29,14.353z M297.746,35.819l-0.001-0.014c-0.086,0.74-0.769,1.283-1.45,1.283h-18.599
					c-0.643,0-0.97-0.438-0.875-0.977c0.006-0.016,0.008-0.029,0.018-0.043c0,0-0.006,0.002-0.012,0.006
					c0.004-0.021,0.004-0.041,0.01-0.062c0,0,0.035-0.131,0.085-0.316c1.776-4.723,5.395-7.822,12.194-7.822
					C296.771,27.874,298.265,31.614,297.746,35.819z"/>
			</g>
		</g>
		<g>
			<path fill="#131B28" d="M189.184,56.397c0,0,6.689-16.242,8.209-25.625C199.463,18.214,193.178,0,168.89,0
				c-24.149,0-34.636,17.39-38.638,36.294c-4.001,19.041,1.241,35.74,25.254,35.604l18.943-0.07l17.705-0.064
				c0.682-0.006,1.379-0.547,1.553-1.205l3.084-11.764c0.172-0.66-0.245-1.203-0.927-1.207l-2.956-0.018l-2.955-0.018
				c-0.58-0.004-0.912-0.379-0.842-0.877C189.125,56.585,189.145,56.493,189.184,56.397z M179.454,35.743l-0.336,1.189
				c0,0.004-0.001,0.004-0.001,0.004l-2.681,9.5l-2.68,9.498c-0.186,0.656-0.895,1.193-1.578,1.193H157.99
				c-10.763,0-13.383-8.418-10.763-20.834c2.62-12.699,7.758-20.594,18.351-21.393C180.053,13.81,182.949,23.991,179.454,35.743z"/>
		</g>
		<circle fill="#131B28" cx="307.918" cy="45.526" r="0.814"/>
	</g>
	<g>
		<path fill="#0769AD" d="M4.783,24.407c-6.668,9.584-5.838,22.053-0.744,32.236c0.121,0.244,0.248,0.484,0.373,0.725
			c0.08,0.152,0.155,0.309,0.238,0.459c0.047,0.09,0.1,0.178,0.148,0.264c0.087,0.162,0.176,0.316,0.266,0.475
			c0.158,0.279,0.32,0.557,0.486,0.834c0.092,0.152,0.183,0.305,0.277,0.457c0.184,0.297,0.372,0.59,0.564,0.883
			c0.08,0.125,0.158,0.25,0.24,0.371c0.266,0.396,0.537,0.791,0.817,1.18c0.007,0.01,0.015,0.021,0.023,0.031
			c0.044,0.062,0.093,0.123,0.138,0.186c0.242,0.334,0.492,0.664,0.745,0.99c0.093,0.119,0.187,0.238,0.28,0.357
			c0.226,0.283,0.455,0.564,0.688,0.846c0.087,0.105,0.175,0.211,0.263,0.314c0.313,0.369,0.633,0.736,0.959,1.096
			c0.006,0.006,0.014,0.014,0.02,0.02c0.014,0.016,0.025,0.025,0.037,0.041c0.318,0.348,0.645,0.688,0.975,1.027
			c0.103,0.105,0.207,0.211,0.312,0.314c0.256,0.258,0.516,0.512,0.778,0.764c0.106,0.102,0.212,0.205,0.318,0.303
			c0.351,0.33,0.705,0.654,1.066,0.971c0.006,0.006,0.011,0.01,0.017,0.014c0.062,0.055,0.125,0.105,0.186,0.158
			c0.318,0.275,0.643,0.549,0.969,0.818c0.133,0.107,0.268,0.213,0.401,0.32c0.267,0.213,0.536,0.424,0.808,0.631
			c0.144,0.109,0.287,0.219,0.432,0.328c0.3,0.221,0.602,0.438,0.906,0.65c0.111,0.08,0.219,0.158,0.33,0.234
			c0.031,0.021,0.06,0.043,0.091,0.064c0.289,0.199,0.585,0.391,0.88,0.582c0.127,0.084,0.253,0.172,0.381,0.254
			c0.453,0.287,0.913,0.57,1.378,0.844c0.126,0.072,0.254,0.143,0.381,0.215c0.342,0.197,0.686,0.391,1.034,0.58
			c0.188,0.102,0.382,0.197,0.572,0.295c0.246,0.129,0.49,0.26,0.74,0.385c0.057,0.027,0.115,0.055,0.171,0.082
			c0.101,0.049,0.202,0.096,0.303,0.146c0.388,0.186,0.778,0.367,1.173,0.543c0.084,0.037,0.165,0.074,0.248,0.111
			c0.452,0.197,0.908,0.387,1.368,0.568c0.11,0.045,0.222,0.088,0.333,0.131c0.426,0.164,0.857,0.326,1.291,0.479
			c0.055,0.02,0.107,0.037,0.162,0.057c0.476,0.166,0.956,0.32,1.439,0.471c0.115,0.033,0.231,0.07,0.348,0.104
			c0.492,0.148,0.979,0.326,1.486,0.42c32.248,5.881,41.615-19.379,41.615-19.379c-7.867,10.25-21.832,12.953-35.063,9.943
			c-0.501-0.113-0.987-0.27-1.477-0.414c-0.124-0.037-0.246-0.074-0.368-0.111c-0.478-0.146-0.951-0.301-1.422-0.463
			c-0.064-0.023-0.13-0.047-0.195-0.07c-0.422-0.148-0.839-0.305-1.254-0.465c-0.117-0.047-0.234-0.092-0.352-0.139
			c-0.455-0.18-0.907-0.367-1.354-0.562c-0.092-0.039-0.18-0.08-0.271-0.119c-0.384-0.174-0.764-0.35-1.142-0.531
			c-0.109-0.053-0.219-0.104-0.33-0.158c-0.295-0.145-0.588-0.299-0.881-0.449c-0.196-0.104-0.396-0.201-0.59-0.309
			c-0.357-0.191-0.709-0.391-1.059-0.594c-0.118-0.066-0.238-0.131-0.357-0.199c-0.465-0.273-0.924-0.557-1.378-0.844
			c-0.126-0.08-0.248-0.166-0.372-0.248c-0.33-0.213-0.658-0.43-0.981-0.652c-0.106-0.072-0.21-0.15-0.315-0.223
			c-0.312-0.221-0.621-0.443-0.928-0.67c-0.139-0.104-0.275-0.207-0.411-0.311c-0.28-0.215-0.56-0.432-0.837-0.654
			c-0.125-0.1-0.25-0.199-0.373-0.299c-0.352-0.289-0.699-0.58-1.042-0.879c-0.036-0.031-0.075-0.062-0.114-0.096
			c-0.371-0.326-0.735-0.66-1.096-0.996c-0.104-0.1-0.206-0.197-0.309-0.297c-0.267-0.254-0.529-0.51-0.787-0.771
			c-0.104-0.104-0.207-0.205-0.309-0.309c-0.328-0.336-0.65-0.676-0.966-1.021c-0.016-0.018-0.032-0.033-0.048-0.051
			c-0.334-0.365-0.66-0.738-0.979-1.115c-0.087-0.104-0.171-0.203-0.257-0.305c-0.238-0.287-0.475-0.578-0.705-0.871
			c-0.086-0.107-0.172-0.215-0.258-0.324c-0.277-0.359-0.549-0.719-0.814-1.084c-7.346-10.02-9.984-23.84-4.113-35.189"/>
		<path fill="#0769AD" d="M25.482,16.333c-4.822,6.939-4.561,16.229-0.799,23.568c0.631,1.23,1.34,2.424,2.133,3.561
			c0.723,1.035,1.523,2.268,2.482,3.1c0.348,0.383,0.711,0.756,1.082,1.123c0.094,0.096,0.189,0.188,0.285,0.281
			c0.36,0.35,0.727,0.693,1.105,1.027c0.016,0.012,0.029,0.027,0.045,0.039c0.004,0.004,0.008,0.006,0.011,0.01
			c0.419,0.367,0.852,0.721,1.291,1.068c0.098,0.074,0.194,0.152,0.293,0.229c0.44,0.338,0.89,0.67,1.351,0.986
			c0.014,0.01,0.025,0.02,0.039,0.029c0.203,0.141,0.41,0.271,0.616,0.406c0.099,0.064,0.192,0.133,0.292,0.193
			c0.329,0.211,0.662,0.416,1.001,0.613c0.048,0.029,0.095,0.055,0.142,0.082c0.292,0.168,0.588,0.334,0.885,0.494
			c0.104,0.059,0.209,0.109,0.314,0.164c0.205,0.107,0.41,0.217,0.619,0.32c0.031,0.016,0.063,0.029,0.094,0.043
			c0.425,0.209,0.854,0.41,1.291,0.602c0.094,0.041,0.19,0.078,0.285,0.117c0.35,0.148,0.703,0.293,1.059,0.43
			c0.15,0.057,0.303,0.111,0.453,0.166c0.322,0.119,0.646,0.229,0.972,0.338c0.147,0.047,0.292,0.096,0.439,0.141
			c0.464,0.145,0.922,0.326,1.405,0.406c24.898,4.125,30.646-15.045,30.646-15.045c-5.182,7.463-15.216,11.023-25.924,8.244
			c-0.476-0.125-0.944-0.262-1.41-0.408c-0.143-0.043-0.282-0.09-0.424-0.137c-0.331-0.107-0.66-0.221-0.986-0.34
			c-0.149-0.055-0.299-0.109-0.445-0.166c-0.357-0.137-0.711-0.279-1.062-0.428c-0.096-0.041-0.192-0.078-0.286-0.121
			c-0.439-0.191-0.872-0.393-1.299-0.604c-0.22-0.107-0.436-0.221-0.651-0.332c-0.125-0.064-0.251-0.129-0.376-0.193
			c-0.277-0.15-0.553-0.307-0.824-0.465c-0.064-0.037-0.132-0.072-0.197-0.111c-0.337-0.197-0.669-0.4-0.998-0.609
			c-0.102-0.064-0.199-0.135-0.301-0.201c-0.217-0.141-0.434-0.283-0.646-0.428c-0.459-0.316-0.905-0.648-1.346-0.984
			c-0.102-0.08-0.203-0.158-0.303-0.238c-4.691-3.699-8.406-8.756-10.173-14.49c-1.852-5.947-1.452-12.623,1.755-18.041"/>
		<path fill="#0769AD" d="M42.89,10.3c-2.843,4.184-3.122,9.379-1.149,14c2.08,4.904,6.343,8.752,11.317,10.576
			c0.205,0.076,0.41,0.145,0.618,0.215c0.091,0.027,0.181,0.059,0.272,0.086c0.293,0.092,0.584,0.199,0.887,0.256
			c13.748,2.656,17.477-7.055,18.47-8.484c-3.267,4.703-8.756,5.832-15.491,4.197c-0.531-0.129-1.116-0.32-1.629-0.502
			c-0.658-0.234-1.306-0.502-1.936-0.805c-1.196-0.574-2.336-1.271-3.393-2.07c-6.027-4.572-9.771-13.297-5.839-20.401"/>
	</g>
	<g>
		<path fill="#0769AD" d="M197.727,91.782l-3.963,9.025h-4.375l0.358-8.201l-3.221,8.201h-4.236l-0.111-9.025l0.468-2.229h3
			l-0.578,8.914l3.33-8.914h4.183l-0.303,9.025l3.303-9.025h2.613L197.727,91.782z"/>
		<path fill="#0769AD" d="M204.634,94.452c0.386-1.762,0.275-2.092-0.633-2.092h-1.376l-0.881,4.129l-1.349,4.318h-2.559
			l2.091-9.795l0.304-1.432h2.339l0.303,0.66c0,0,1.349-0.797,2.668-0.797c2.808,0,2.588,2.117,1.981,5.008H204.634z"/>
		<path fill="#0769AD" d="M211.734,100.808h-2.533l0.496-4.402l0.881-4.072l-1.761-0.387l0.495-2.393h4.814L211.734,100.808z
			 M212.944,88.149c-1.127,0-1.843-0.33-1.568-1.705c0.303-1.377,1.184-1.707,2.283-1.707c1.103,0,1.845,0.33,1.542,1.707
			C214.925,87.792,214.045,88.149,212.944,88.149z"/>
		<path fill="#0769AD" d="M222.713,91.946l-3.164,0.387l-0.909,4.293c-0.248,1.184-0.248,1.514,0.799,1.514c0.577,0,2.118,0,2.118,0
			l-0.44,2.256c0,0-1.925,0.578-2.752,0.578c-3.247,0-3.22-1.789-2.641-4.459l0.881-4.209l-1.762-0.385l0.522-2.395h1.845
			l1.046-2.836h2.504l-0.606,2.836h3.082L222.713,91.946z"/>
		<path fill="#0769AD" d="M226.319,96.267c-0.194,1.377,0.329,1.844,2.09,1.844h4.43l-0.439,2.092c0,0-2.669,0.742-4.65,0.742
			c-4.926,0-4.981-2.777-4.348-5.75c0.633-2.918,1.761-5.805,6.521-5.805c4.597,0,4.817,2.777,3.688,6.877H226.319z M229.29,92.085
			c-1.485,0-2.257,0.771-2.559,2.146l4.237-0.357C231.161,92.938,230.968,92.085,229.29,92.085z"/>
		<path fill="#0769AD" d="M243.708,100.808h-2.53l0.495-4.402l1.789-8.365l-1.763-0.412l0.523-2.395h4.816L243.708,100.808z"/>
		<path fill="#0769AD" d="M249.873,96.267c-0.192,1.377,0.331,1.844,2.091,1.844h4.431l-0.44,2.092c0,0-2.67,0.742-4.651,0.742
			c-4.926,0-4.979-2.777-4.347-5.75c0.634-2.918,1.762-5.805,6.521-5.805c4.596,0,4.815,2.777,3.688,6.877H249.873z M252.845,92.085
			c-1.487,0-2.257,0.771-2.561,2.146l4.238-0.357C254.714,92.938,254.523,92.085,252.845,92.085z"/>
		<path fill="#0769AD" d="M268.777,92.224c0,0-3.22,0.027-4.1,0.027c-1.872,0-2.064,0.576-2.201,1.182l-0.111,0.551l5.944,0.441
			c0,0,0.027,1.898-0.221,2.971c-0.357,1.789-2.201,3.604-5.53,3.604c-1.652,0-4.321-0.631-4.321-0.631l0.468-2.174
			c0,0,3.221,0,4.101,0c1.816,0,2.064-0.496,2.176-0.99l0.137-0.715l-5.834-0.441c0,0-0.22-1.459,0.082-2.916
			c0.441-1.982,2.256-3.688,5.586-3.688c1.651,0,4.32,0.604,4.32,0.604L268.777,92.224z"/>
		<path fill="#0769AD" d="M279.838,92.224c0,0-3.219,0.027-4.1,0.027c-1.871,0-2.063,0.576-2.201,1.182l-0.111,0.551l5.945,0.441
			c0,0,0.027,1.898-0.221,2.971c-0.357,1.789-2.201,3.604-5.531,3.604c-1.65,0-4.32-0.631-4.32-0.631l0.468-2.174
			c0,0,3.22,0,4.101,0c1.815,0,2.063-0.496,2.175-0.99l0.137-0.715l-5.834-0.441c0,0-0.22-1.459,0.082-2.916
			c0.441-1.982,2.256-3.688,5.587-3.688c1.65,0,4.319,0.604,4.319,0.604L279.838,92.224z"/>
		<path fill="#0769AD" d="M283.306,102.597h-2.2l0.082-1.652c-0.799-0.053-1.211-0.631-1.019-1.596
			c0.303-1.375,1.156-1.705,2.284-1.705c1.101,0,1.842,0.33,1.541,1.705L283.306,102.597z"/>
		<path fill="#0769AD" d="M301.797,99.349l-0.304,1.459l-2.31-0.027l-0.331-0.715c0,0-2.037,0.879-3.411,0.879
			c-3.523,0-3.688-2.889-3.056-5.805c0.633-2.973,2.009-5.779,5.504-5.779c1.267,0,2.972,0.633,2.972,0.633l1.403-4.76h2.532
			L301.797,99.349z M298.027,92.333c-1.65,0-2.228,0.99-2.613,2.807s-0.275,2.889,1.375,2.889h2.284l1.267-5.695H298.027z"/>
		<path fill="#0769AD" d="M309.036,100.974c-4.541,0-4.899-2.834-4.294-5.779c0.634-2.943,2.229-5.75,6.771-5.75
			c4.512,0,4.926,2.807,4.291,5.75C315.171,98.194,313.575,100.974,309.036,100.974z M310.906,92.224
			c-2.146,0-2.835,1.209-3.22,2.971c-0.357,1.789-0.191,3,1.926,3c2.202,0,2.863-1.184,3.247-3
			C313.246,93.487,313.134,92.224,310.906,92.224z"/>
		<path fill="#0769AD" d="M334.791,100.808l0.496-4.348l0.247-1.238c0.358-1.65,0.578-2.861-1.156-2.861h-1.348
			c0.056,0.854-0.11,1.816-0.33,2.834l-1.183,5.613h-2.56l0.495-4.348l0.247-1.238c0.358-1.65,0.577-2.861-1.154-2.861h-1.102
			l-1.816,8.447h-2.945l2.395-11.254h2.312l0.357,0.688c0,0,1.569-0.826,2.835-0.826c0.963,0,1.679,0.441,1.927,0.99
			c0.55-0.303,2.119-0.99,3.248-0.99c3.52,0,3.411,2.861,2.777,5.779l-1.183,5.613H334.791z"/>
		<path fill="#0769AD" d="M344.615,100.974c-4.542,0-4.898-2.834-4.293-5.779c0.633-2.943,2.229-5.75,6.77-5.75
			c4.514,0,4.926,2.807,4.292,5.75C350.751,98.194,349.155,100.974,344.615,100.974z M346.486,92.224
			c-2.147,0-2.835,1.209-3.22,2.971c-0.357,1.789-0.191,3,1.926,3c2.201,0,2.863-1.184,3.248-3
			C348.825,93.487,348.714,92.224,346.486,92.224z"/>
		<path fill="#0769AD" d="M359.034,94.452c0.385-1.762,0.275-2.092-0.632-2.092h-1.377l-0.881,4.129l-1.349,4.318h-2.559
			l2.091-9.795l0.304-1.432h2.339l0.302,0.66c0,0,1.349-0.797,2.671-0.797c2.806,0,2.585,2.117,1.979,5.008H359.034z"/>
		<path fill="#0769AD" d="M365.914,96.267c-0.191,1.377,0.33,1.844,2.091,1.844h4.431l-0.439,2.092c0,0-2.67,0.742-4.65,0.742
			c-4.926,0-4.98-2.777-4.35-5.75c0.634-2.918,1.763-5.805,6.522-5.805c4.595,0,4.816,2.777,3.688,6.877H365.914z M368.885,92.085
			c-1.484,0-2.256,0.771-2.558,2.146l4.235-0.357C370.757,92.938,370.563,92.085,368.885,92.085z"/>
		<path fill="#0769AD" d="M375.682,100.974c-1.156,0-1.87-0.33-1.567-1.678c0.273-1.379,1.127-1.707,2.284-1.707
			c1.072,0,1.814,0.328,1.541,1.707C377.635,100.616,376.756,100.974,375.682,100.974z"/>
	</g>
</g>
</svg>
