<?xml version="1.0" encoding="utf-8"?>
<!-- Generator: Adobe Illustrator 16.2.1, SVG Export Plug-In . SVG Version: 6.00 Build 0)  -->
<!DOCTYPE svg PUBLIC "-//W3C//DTD SVG 1.1//EN" "http://www.w3.org/Graphics/SVG/1.1/DTD/svg11.dtd">
<svg version="1.1" id="Layer_1" xmlns="http://www.w3.org/2000/svg" xmlns:xlink="http://www.w3.org/1999/xlink" x="0px" y="0px"
	 width="282.462px" height="107.034px" viewBox="0 0 282.462 107.034" enable-background="new 0 0 282.462 107.034"
	 xml:space="preserve">
<g>
	<g>
		<g>
			<path d="M124.664,79.039c2.417,0,3.614,1.42,3.614,1.42l-0.687,1.003c0,0-1.1-1.202-2.887-1.202c-2.16,0-3.852,1.612-3.852,3.97
				c0,2.316,1.709,3.97,3.893,3.97c2.003,0,3.162-1.397,3.162-1.397l0.61,1.045c0,0-1.336,1.55-3.853,1.55
				c-2.928,0-5.186-2.102-5.186-5.168C119.478,81.183,121.754,79.039,124.664,79.039z"/>
			<path d="M131.417,79.276h1.317v1.75c0,0.437-0.037,0.789-0.037,0.789h0.037c0.473-1.493,1.573-2.634,3.124-2.634
				c0.28,0,0.532,0.058,0.532,0.058v1.317c0,0-0.235-0.042-0.493-0.042c-1.396,0-2.438,1.103-2.869,2.558
				c-0.195,0.631-0.274,1.297-0.274,1.925v4.165h-1.337V79.276z"/>
			<path d="M142.257,79.039c2.735,0,4.128,2.105,4.128,4.56c0,0.237-0.043,0.689-0.043,0.689h-7.58
				c0.055,2.538,1.787,3.912,3.827,3.912c1.812,0,3.011-1.198,3.011-1.198l0.608,1.022c0,0-1.436,1.375-3.655,1.375
				c-2.947,0-5.169-2.121-5.169-5.168C137.384,80.988,139.588,79.039,142.257,79.039z M145.029,83.189
				c-0.076-2.063-1.338-3.028-2.81-3.028c-1.651,0-3.086,1.042-3.402,3.028H145.029z"/>
			<path d="M154.456,83.055h0.546v-0.26c0-1.902-1.042-2.553-2.454-2.553c-1.629,0-2.791,0.941-2.791,0.941l-0.628-1.022
				c0,0,1.298-1.122,3.518-1.122c2.376,0,3.695,1.321,3.695,3.797v6.324h-1.279v-1.083c0-0.486,0.043-0.823,0.043-0.823h-0.043
				c0,0-0.826,2.144-3.302,2.144c-1.647,0-3.354-0.965-3.354-2.928C148.406,83.131,152.742,83.055,154.456,83.055z M151.975,88.253
				c1.89,0,3.027-1.96,3.027-3.667v-0.433h-0.566c-1.551,0-4.656,0.062-4.656,2.236C149.779,87.315,150.504,88.253,151.975,88.253z"
				/>
			<path d="M159.461,80.513h-1.299v-1.118h1.316v-2.848h1.316v2.848h2.475v1.118h-2.475v4.916c0,2.32,1.473,2.611,2.221,2.611
				c0.275,0,0.453-0.035,0.453-0.035v1.198c0,0-0.218,0.039-0.57,0.039c-1.141,0-3.438-0.372-3.438-3.675V80.513z"/>
			<path d="M165.777,75.345h1.394v1.673h-1.394V75.345z M165.82,79.276h1.332v9.884h-1.332V79.276z"/>
			<path d="M169.326,79.276h1.42l2.745,7.25c0.18,0.494,0.337,1.183,0.337,1.183h0.042c0,0,0.153-0.67,0.353-1.183l2.729-7.25h1.395
				l-3.771,9.884h-1.453L169.326,79.276z"/>
			<path d="M184.076,79.039c2.732,0,4.131,2.105,4.131,4.56c0,0.237-0.043,0.689-0.043,0.689h-7.583
				c0.058,2.538,1.788,3.912,3.828,3.912c1.814,0,3.009-1.198,3.009-1.198l0.608,1.022c0,0-1.436,1.375-3.655,1.375
				c-2.948,0-5.17-2.121-5.17-5.168C179.201,80.988,181.406,79.039,184.076,79.039z M186.85,83.189
				c-0.076-2.063-1.338-3.028-2.812-3.028c-1.649,0-3.083,1.042-3.398,3.028H186.85z"/>
			<path d="M198.057,80.513h-1.236v-1.118h1.236v-0.471c0-3.262,2.301-3.675,3.418-3.675c0.375,0,0.611,0.042,0.611,0.042v1.194
				c0,0-0.197-0.035-0.47-0.035c-0.77,0-2.224,0.272-2.224,2.473v0.471h2.537v1.118h-2.537v8.648h-1.336V80.513z"/>
			<path d="M204.16,79.276h1.316v1.75c0,0.437-0.036,0.789-0.036,0.789h0.036c0.473-1.493,1.572-2.634,3.124-2.634
				c0.278,0,0.53,0.058,0.53,0.058v1.317c0,0-0.233-0.042-0.49-0.042c-1.396,0-2.438,1.103-2.867,2.558
				c-0.197,0.631-0.275,1.297-0.275,1.925v4.165h-1.338V79.276z"/>
			<path d="M215.361,79.039c2.731,0,4.125,2.105,4.125,4.56c0,0.237-0.039,0.689-0.039,0.689h-7.585
				c0.063,2.538,1.79,3.912,3.83,3.912c1.811,0,3.009-1.198,3.009-1.198l0.609,1.022c0,0-1.436,1.375-3.656,1.375
				c-2.947,0-5.168-2.121-5.168-5.168C210.486,80.988,212.688,79.039,215.361,79.039z M218.127,83.189
				c-0.076-2.063-1.334-3.028-2.807-3.028c-1.649,0-3.083,1.042-3.395,3.028H218.127z"/>
			<path d="M226.246,79.039c2.733,0,4.119,2.105,4.119,4.56c0,0.237-0.03,0.689-0.03,0.689h-7.585
				c0.059,2.538,1.789,3.912,3.83,3.912c1.807,0,3.012-1.198,3.012-1.198l0.605,1.022c0,0-1.436,1.375-3.652,1.375
				c-2.955,0-5.174-2.121-5.174-5.168C221.371,80.988,223.574,79.039,226.246,79.039z M229.018,83.189
				c-0.082-2.063-1.34-3.028-2.808-3.028c-1.653,0-3.091,1.042-3.401,3.028H229.018z"/>
			<path d="M236.356,79.039c2.396,0,3.224,1.872,3.224,1.872h0.038c0,0-0.038-0.337-0.038-0.75v-4.816h1.338v13.816h-1.3v-1.042
				c0-0.432,0.042-0.708,0.042-0.708h-0.042c0,0-0.804,1.987-3.399,1.987c-2.652,0-4.299-2.121-4.299-5.183
				C231.92,81.087,233.761,79.039,236.356,79.039z M236.422,88.2c1.646,0,3.196-1.179,3.196-3.985c0-2.01-1.021-3.974-3.144-3.974
				c-1.749,0-3.177,1.474-3.177,3.974C233.298,86.646,234.568,88.2,236.422,88.2z"/>
			<path d="M247.787,79.039c2.887,0,5.228,2.205,5.228,5.134c0,2.986-2.341,5.225-5.228,5.225s-5.225-2.239-5.225-5.225
				C242.562,81.244,244.9,79.039,247.787,79.039z M247.787,88.2c2.121,0,3.855-1.73,3.855-4.027c0-2.244-1.734-3.913-3.855-3.913
				c-2.123,0-3.852,1.669-3.852,3.913C243.936,86.47,245.664,88.2,247.787,88.2z"/>
			<path d="M254.658,79.276h1.319v1.478c0,0.429-0.04,0.785-0.04,0.785h0.04c0.465-1.34,2.042-2.5,3.569-2.5
				c1.83,0,2.771,0.85,3.066,2.48h0.046c0.528-1.34,1.96-2.48,3.631-2.48c2.395,0,3.283,1.397,3.283,3.836v6.286h-1.338v-5.953
				c0-1.612-0.331-2.948-2.143-2.948c-1.51,0-2.748,1.336-3.127,2.794c-0.134,0.429-0.175,0.9-0.175,1.428v4.678h-1.332v-5.953
				c0-1.493-0.22-2.948-2.082-2.948c-1.617,0-2.833,1.397-3.244,2.909c-0.1,0.414-0.141,0.861-0.141,1.313v4.678h-1.334V79.276z"/>
			<path d="M273.589,79.051h-1.754v-0.582h4.156v0.582h-1.764v4.333h-0.639V79.051z M276.787,78.469h0.588l1.29,2.817
				c0.1,0.21,0.158,0.459,0.158,0.459h0.023c0,0,0.054-0.249,0.153-0.459l1.294-2.817h0.581l0.383,4.915h-0.614l-0.283-3.334
				c-0.012-0.172,0.01-0.329,0.01-0.329h-0.021l-1.259,2.737h-0.517l-1.252-2.737h-0.027c0,0,0.027,0.157,0.008,0.329l-0.275,3.334
				h-0.628L276.787,78.469z"/>
		</g>
		<g>
			<path d="M119.553,59.187h4.13l2.075-25.277h-4.238v-4.881h11.387l7.779,19.761c0.596,1.726,0.845,2.905,0.845,2.905h0.096
				c0,0,0.244-1.179,0.885-2.905l7.739-19.761h11.381v4.881h-4.188l2.018,25.277h4.143v4.831h-14.338v-4.831h3.889L151.87,41.55
				c-0.088-1.232,0.153-3.258,0.153-3.258h-0.153c0,0-0.387,1.922-0.835,3.105l-6.701,16.116h-5.517l-6.702-16.116
				c-0.444-1.183-0.789-3.105-0.789-3.105h-0.193c0,0,0.241,2.025,0.144,3.258l-1.282,17.636h3.945v4.831h-14.387V59.187z"/>
			<path d="M182.855,28.436c10.349,0,18.135,7.836,18.135,17.846c0,10.298-7.786,18.322-18.135,18.322
				c-10.352,0-18.135-8.024-18.135-18.322C164.721,36.271,172.504,28.436,182.855,28.436z M182.855,58.938
				c6.301,0,11.483-5.462,11.483-12.656c0-6.902-5.183-12.181-11.483-12.181c-6.31,0-11.484,5.279-11.484,12.181
				C171.371,53.475,176.546,58.938,182.855,58.938z"/>
			<path d="M203.232,59.187h4.191V33.91h-4.191v-4.881h15.124c2.81,0,5.034,0.149,7.3,0.838c6.799,2.021,11.336,8.031,11.336,16.652
				c0,8.284-4.188,14.248-10.842,16.46c-2.369,0.838-4.834,1.038-7.744,1.038h-15.174V59.187z M218.119,58.842
				c2.211,0,3.987-0.203,5.715-0.888c3.986-1.627,6.501-5.716,6.501-11.435c0-5.911-2.657-9.957-6.749-11.53
				c-1.776-0.686-3.403-0.781-5.467-0.781h-4.241v24.634H218.119z"/>
			<path d="M238.766,59.187h3.111l8.812-12.905l-8.568-12.372h-3.111v-4.881h13.217v4.881h-3.451l4.828,7.243
				c0.642,0.789,0.982,1.478,0.982,1.478h0.104c0,0.046,0.34-0.643,0.93-1.478l4.683-7.243h-3.351v-4.881h12.718v4.881h-3.05
				l-8.875,12.862l8.725,12.415h3.104v4.831h-13.259v-4.831h3.445l-4.879-7.338c-0.636-0.842-0.986-1.531-0.986-1.531h-0.09
				c-0.104,0-0.402,0.689-0.941,1.531l-4.682,7.338h3.401v4.831h-12.817V59.187z"/>
			<g>
				<path d="M278.293,28.474c2.322,0,4.169,1.879,4.169,4.238c0,2.358-1.847,4.241-4.169,4.241c-2.273,0-4.124-1.883-4.124-4.241
					C274.169,30.353,276.02,28.474,278.293,28.474z M278.293,36.161c1.884,0,3.319-1.508,3.319-3.449
					c0-1.937-1.436-3.449-3.319-3.449c-1.845,0-3.265,1.512-3.265,3.449C275.028,34.652,276.448,36.161,278.293,36.161z
					 M276.877,30.506h1.696c0.818,0,1.368,0.524,1.368,1.336c0,0.674-0.442,1.068-0.802,1.16v0.026c0,0,0.05,0.046,0.153,0.241
					l0.848,1.616h-0.905l-0.812-1.696H277.7v1.696h-0.823V30.506z M278.396,32.585c0.444,0,0.712-0.279,0.712-0.743
					c0-0.452-0.268-0.708-0.698-0.708h-0.71v1.451H278.396z"/>
			</g>
		</g>
	</g>
	<polygon fill="#FFFFFF" points="107.033,11.722 51.65,95.309 0,95.309 55.381,11.722 	"/>
	<g>
		
			<linearGradient id="SVGID_1_" gradientUnits="userSpaceOnUse" x1="95.8594" y1="44.1997" x2="12.2725" y2="44.1997" gradientTransform="matrix(1 0 0 1 -0.2061 -0.209)">
			<stop  offset="0" style="stop-color:#92C5E0"/>
			<stop  offset="1" style="stop-color:#1FABD6"/>
		</linearGradient>
		<polygon fill="url(#SVGID_1_)" points="95.311,87.981 11.724,32.772 11.724,0 95.311,55.221 		"/>
		
			<linearGradient id="SVGID_2_" gradientUnits="userSpaceOnUse" x1="82.8862" y1="93.9863" x2="14.4105" y2="46.9026" gradientTransform="matrix(1 0 0 1 -0.2061 -0.209)">
			<stop  offset="0" style="stop-color:#F4874A"/>
			<stop  offset="1" style="stop-color:#E32929"/>
		</linearGradient>
		<polygon fill="url(#SVGID_2_)" points="95.312,107.034 11.726,51.813 11.726,40.417 95.312,95.638 		"/>
	</g>
	<polygon opacity="0.1" fill="#FFFFFF" points="107.033,11.722 51.65,95.309 0,95.309 55.381,11.722 	"/>
	
		<linearGradient id="SVGID_3_" gradientUnits="userSpaceOnUse" x1="-62.2583" y1="-68.2183" x2="76.225" y2="12.3451" gradientTransform="matrix(0 -1 1 0 93.144 40.4009)">
		<stop  offset="0" style="stop-color:#539E44"/>
		<stop  offset="1" style="stop-color:#CFE257"/>
	</linearGradient>
	<polygon fill="url(#SVGID_3_)" points="107.033,11.722 51.65,95.309 0,95.309 55.381,11.722 	"/>
</g>
</svg>
