<?xml version="1.0" encoding="utf-8"?>
<!-- Generator: Adobe Illustrator 16.2.1, SVG Export Plug-In . SVG Version: 6.00 Build 0)  -->
<!DOCTYPE svg PUBLIC "-//W3C//DTD SVG 1.1//EN" "http://www.w3.org/Graphics/SVG/1.1/DTD/svg11.dtd">
<svg version="1.1" id="Layer_1" xmlns="http://www.w3.org/2000/svg" xmlns:xlink="http://www.w3.org/1999/xlink" x="0px" y="0px"
	 width="119.6px" height="120.022px" viewBox="0 0 119.6 120.022" enable-background="new 0 0 119.6 120.022" xml:space="preserve">
<path fill="#010101" d="M0,60.011C0,26.868,26.773,0,59.8,0s59.8,26.868,59.8,60.011c0,33.144-26.773,60.011-59.8,60.011
	S0,93.155,0,60.011"/>
<path fill="#FFFFFF" d="M19.936,46.461v-21.15h4.776c6.007,0,10.877,4.887,10.877,10.916c0,6.029-4.87,10.916-10.877,10.916
	c-0.906,0-0.906-1.364,0-1.364c5.257,0,9.518-4.277,9.518-9.552c0-5.276-4.261-9.552-9.518-9.552h-3.417v19.786
	C21.295,47.37,19.936,47.37,19.936,46.461"/>
<path fill="#FFFFFF" d="M62.974,26.075v20.468c0,0.909-1.359,0.909-1.359,0V26.075C61.615,25.167,62.974,25.167,62.974,26.075"/>
<path fill="#FFFFFF" d="M47.189,26.675h-8.953v19.104h8.953c0.906,0,0.906,1.364,0,1.364H36.877V25.311h10.312
	C48.095,25.311,48.095,26.675,47.189,26.675"/>
<path fill="#FFFFFF" d="M40.717,35.545h4.434c0.906,0,0.906,1.364,0,1.364h-4.434C39.811,36.909,39.811,35.545,40.717,35.545"/>
<path fill="#FFFFFF" d="M19.936,70.245v-21.15h4.776c6.007,0,10.877,4.887,10.877,10.916c0,6.029-4.87,10.916-10.877,10.916
	c-0.906,0-0.906-1.364,0-1.364c5.257,0,9.518-4.277,9.518-9.552c0-5.276-4.261-9.552-9.518-9.552h-3.417v19.786
	C21.295,71.154,19.936,71.154,19.936,70.245"/>
<path fill="#FFFFFF" d="M38.236,49.777v20.468c0,0.909-1.359,0.909-1.359,0V49.777C36.877,48.868,38.236,48.868,38.236,49.777"/>
<path fill="#FFFFFF" d="M76.086,49.777v20.468c0,0.91-1.359,0.91-1.359,0V49.777C74.728,48.868,76.086,48.868,76.086,49.777"/>
<path fill="#FFFFFF" d="M66.482,49.095c3.191,0,5.778,2.596,5.778,5.799c0,2.754-1.912,5.058-4.476,5.651
	c-0.883,0.204-1.188-1.125-0.306-1.329c1.962-0.453,3.423-2.217,3.423-4.322c0-2.449-1.978-4.435-4.419-4.435h-3.4v9.27
	l9.999,10.034c0.641,0.643-0.32,1.607-0.961,0.964l-9.038-9.07v8.588c0,0.909-1.359,0.909-1.359,0v-21.15H66.482z"/>
<path fill="#FFFFFF" d="M88.536,70.927c-6.008,0-10.878-4.887-10.878-10.916c0-6.029,4.87-10.916,10.878-10.916
	c0.906,0,0.906,1.364,0,1.364c-5.257,0-9.519,4.277-9.519,9.552c0,5.276,4.262,9.552,9.519,9.552
	C89.442,69.563,89.442,70.927,88.536,70.927"/>
<path fill="#FFFFFF" d="M40.982,65.261c0,2.523,2.038,4.569,4.553,4.569c2.562,0,4.841-2.092,4.841-4.569
	c0-6.776-10.484-3.357-10.484-10.771c0-3.276,2.378-5.662,5.643-5.662c2.84,0,5.211,2.01,5.781,4.689
	c0.189,0.89-1.14,1.174-1.329,0.285c-0.439-2.063-2.266-3.61-4.452-3.61c-2.515,0-4.284,1.775-4.284,4.298
	c0,6.099,10.484,2.871,10.484,10.771c0,3.323-2.984,5.932-6.2,5.932c-3.265,0-5.912-2.656-5.912-5.932
	C39.623,64.352,40.982,64.352,40.982,65.261"/>
<path fill="#FFFFFF" d="M56.438,50.459v19.786c0,0.909-1.359,0.909-1.359,0V50.459h-3.4c-0.906,0-0.906-1.364,0-1.364h8.159
	c0.906,0,0.906,1.364,0,1.364H56.438z"/>
<path fill="#FFFFFF" d="M95.801,50.459v19.786c0,0.909-1.359,0.909-1.359,0V50.459h-3.4c-0.906,0-0.906-1.364,0-1.364h8.159
	c0.906,0,0.906,1.364,0,1.364H95.801z"/>
<path fill="#FFFFFF" d="M47.731,73.479v19.786h6.507c0.906,0,0.906,1.364,0,1.364h-7.866v-21.15
	C46.372,72.57,47.731,72.57,47.731,73.479"/>
<path fill="#FFFFFF" d="M21.295,83.031h8.921v-9.552c0-0.909,1.359-0.909,1.359,0v20.468c0,0.909-1.359,0.909-1.359,0v-9.552h-8.921
	v9.552c0,0.909-1.359,0.909-1.359,0V73.479c0-0.909,1.359-0.909,1.359,0V83.031z"/>
<path fill="#FFFFFF" d="M69.611,73.479v20.468c0,0.909-1.359,0.909-1.359,0V73.479C68.252,72.57,69.611,72.57,69.611,73.479"/>
<path fill="#FFFFFF" d="M99.665,73.479v20.468c0,0.909-1.359,0.909-1.359,0V73.479C98.306,72.57,99.665,72.57,99.665,73.479"/>
<path fill="#FFFFFF" d="M56.129,88.963c0,2.523,2.038,4.568,4.552,4.568c2.563,0,4.842-2.091,4.842-4.568
	c0-6.775-10.484-3.357-10.484-10.771c0-3.276,2.378-5.662,5.643-5.662c2.84,0,5.211,2.01,5.781,4.689
	c0.189,0.89-1.14,1.174-1.329,0.285c-0.439-2.063-2.266-3.61-4.453-3.61c-2.514,0-4.283,1.775-4.283,4.298
	c0,6.099,10.484,2.871,10.484,10.771c0,3.323-2.984,5.932-6.201,5.932c-3.264,0-5.911-2.656-5.911-5.932
	C54.771,88.054,56.129,88.054,56.129,88.963"/>
<path fill="#FFFFFF" d="M43.924,74.161h-8.953v19.104h8.953c0.906,0,0.906,1.364,0,1.364H33.612V72.796h10.312
	C44.831,72.796,44.831,74.161,43.924,74.161"/>
<path fill="#FFFFFF" d="M37.453,83.031h4.434c0.906,0,0.906,1.364,0,1.364h-4.434C36.547,84.395,36.547,83.031,37.453,83.031"/>
<path fill="#FFFFFF" d="M96.711,73.936l-7.133,7.921c-0.608,0.674-1.616-0.241-1.008-0.915l7.133-7.92
	C96.31,72.347,97.318,73.262,96.711,73.936"/>
<path fill="#FFFFFF" d="M86.688,73.479v9.952l9.999,10.034c0.641,0.643-0.32,1.607-0.961,0.964l-9.038-9.07v8.588
	c0,0.909-1.359,0.909-1.359,0V73.479C85.33,72.57,86.688,72.57,86.688,73.479"/>
<path fill="#FFFFFF" d="M77.621,35.627h9.036v0.682c0,6.166-4.981,11.164-11.125,11.164S64.407,42.476,64.407,36.31
	c0-6.169,4.951-11.164,11.237-11.164c2.764,0,5.645,1.153,7.754,3.27c0.641,0.643-0.32,1.607-0.961,0.964
	c-1.854-1.861-4.39-2.87-6.793-2.87c-5.542,0-9.878,4.391-9.878,9.8c0,5.412,4.372,9.8,9.766,9.8c5.165,0,9.394-4.024,9.743-9.118
	h-7.654C76.715,36.992,76.715,35.627,77.621,35.627"/>
<path fill="#FFFFFF" d="M49.456,41.56c0,2.523,2.038,4.569,4.553,4.569c2.562,0,4.841-2.092,4.841-4.569
	c0-6.776-10.484-3.357-10.484-10.771c0-3.276,2.378-5.662,5.642-5.662c2.841,0,5.212,2.01,5.782,4.689
	c0.189,0.889-1.14,1.174-1.329,0.285c-0.439-2.063-2.266-3.61-4.453-3.61c-2.514,0-4.283,1.775-4.283,4.298
	c0,6.099,10.484,2.87,10.484,10.771c0,3.323-2.984,5.932-6.2,5.932c-3.265,0-5.912-2.656-5.912-5.932
	C48.097,40.651,49.456,40.651,49.456,41.56"/>
<path fill="#FFFFFF" d="M71.636,93.947V73.479c0-0.668,0.914-1.005,1.286-0.307l8.994,17.907V73.522c0-0.909,1.359-0.909,1.359,0
	v20.425c0,0.654-0.903,1.031-1.286,0.307l-8.994-17.907v17.6C72.995,94.856,71.636,94.856,71.636,93.947"/>
<path fill="#FFFFFF" d="M88.025,46.54V26.072c0-0.668,0.914-1.005,1.287-0.307l8.993,17.907V26.115c0-0.909,1.359-0.909,1.359,0
	V46.54c0,0.654-0.903,1.031-1.286,0.307L89.385,28.94v17.6C89.385,47.449,88.025,47.449,88.025,46.54"/>
</svg>
