<?xml version="1.0" encoding="utf-8"?>
<!-- Generator: Adobe Illustrator 16.1.0, SVG Export Plug-In . SVG Version: 6.00 Build 0)  -->
<!DOCTYPE svg PUBLIC "-//W3C//DTD SVG 1.1//EN" "http://www.w3.org/Graphics/SVG/1.1/DTD/svg11.dtd">
<svg version="1.1" xmlns="http://www.w3.org/2000/svg" xmlns:xlink="http://www.w3.org/1999/xlink" x="0px" y="0px"
	 width="721.29px" height="144.049px" viewBox="0 0 721.29 144.049" enable-background="new 0 0 721.29 144.049"
	 xml:space="preserve">
<g id="Layer_1">
	<g display="none">
		<g display="inline">
			<path fill="#424142" d="M189.29,55.436c0-2.072-0.696-3.332-2.768-3.332h-6.232v-9h10.524c6.364,0,9.476,3.009,9.476,9.372
				v26.936c0,3.403-0.745,5.692-0.745,5.692h0.296c0,0,6.216-14.02,25.307-14.02c19.979,0,32.411,16.077,32.411,39.164
				c0,23.531-14.06,39.067-33.595,39.067c-17.76,0-24.419-14.211-24.419-14.211h-0.296c0,0,0.041,2.321,0.041,5.873v6.127h-10
				V55.436z M223.225,140.385c13.171,0,23.975-11.1,23.975-30.043c0-18.203-9.768-29.895-23.531-29.895
				c-12.432,0-24.123,8.879-24.123,30.043C199.545,125.438,207.241,140.385,223.225,140.385z"/>
			<path fill="#424142" d="M301.917,71.271c21.755,0,39.367,16.575,39.367,38.626c0,22.495-17.612,39.367-39.219,39.367
				c-21.755,0-39.367-16.872-39.367-39.367C262.698,87.847,280.31,71.271,301.917,71.271z M302.065,140.236
				c15.835,0,28.859-13.023,28.859-30.339c0-16.871-13.023-29.45-28.859-29.45c-15.983,0-29.007,12.579-29.007,29.45
				C273.058,127.213,286.082,140.236,302.065,140.236z"/>
			<path fill="#424142" d="M385.344,71.271c21.755,0,39.366,16.575,39.366,38.626c0,22.495-17.611,39.367-39.219,39.367
				c-21.755,0-39.366-16.872-39.366-39.367C346.125,87.847,363.736,71.271,385.344,71.271z M385.491,140.236
				c15.836,0,28.859-13.023,28.859-30.339c0-16.871-13.023-29.45-28.859-29.45c-15.982,0-29.007,12.579-29.007,29.45
				C356.484,127.213,369.509,140.236,385.491,140.236z"/>
			<path fill="#424142" d="M432.29,85.034c0-2.071-0.967-2.931-3.039-2.931h-5.961v-9h10.105c6.216,0,8.895,2.607,8.895,8.231v3.403
				c0,2.96-0.163,5.365-0.163,5.365h0.296c2.664-7,12.264-18.813,29.729-18.813c18.498,0,25.139,10.488,25.139,28.84v35.371
				c0,2.22,0.927,3.603,2.999,3.603h6.001v8h-10.293c-6.363,0-8.707-2.279-8.707-8.643v-35.667c0-11.691-1.937-22.051-16.292-22.051
				c-12.728,0-23.899,8.731-27.304,21.015c-0.888,3.108-1.404,6.512-1.404,10.063v35.282h-10V85.034z"/>
			<path fill="#424142" d="M543.776,71.271c8.436,0,26.514,3.552,26.514,15.835v6.997h-10v-4.629c0-6.216-10.562-9.176-16.778-9.176
				c-15.983,0-28.739,11.987-28.739,30.043c0,18.352,13.528,29.747,29.216,29.747c15.243,0,24.005-10.508,24.005-10.508l4.752,7.548
				c0,0-10.057,12.136-29.148,12.136c-22.199,0-39.055-15.836-39.055-38.923C504.542,87.551,521.577,71.271,543.776,71.271z"/>
			<path fill="#424142" d="M613.896,71.271c21.755,0,39.366,16.575,39.366,38.626c0,22.495-17.611,39.367-39.219,39.367
				c-21.755,0-39.366-16.872-39.366-39.367C574.678,87.847,592.289,71.271,613.896,71.271z M614.044,140.236
				c15.836,0,28.859-13.023,28.859-30.339c0-16.871-13.023-29.45-28.859-29.45c-15.983,0-29.007,12.579-29.007,29.45
				C585.037,127.213,598.061,140.236,614.044,140.236z"/>
			<path fill="#424142" d="M661.29,85.034c0-2.071-1.414-2.931-3.485-2.931h-6.515v-9h10.658c6.216,0,9.342,2.607,9.342,8.231v3.403
				c0,2.96-0.61,5.365-0.61,5.365h0.296c2.664-7,11.988-18.813,29.451-18.813c18.5,0,24.863,10.488,24.863,28.84v35.371
				c0,2.22,1.479,3.603,3.552,3.603h6.448v8h-10.74c-6.363,0-9.26-2.279-9.26-8.643v-35.667c0-11.691-1.66-22.051-16.016-22.051
				c-12.728,0-23.537,8.731-26.941,21.015c-0.889,3.108-1.043,6.512-1.043,10.063v35.282h-10V85.034z"/>
		</g>
		<g display="inline">
			<polygon fill="#424142" points="105.253,109.734 99.29,81.067 99.29,81.035 99.524,81.04 99.641,81.024 99.639,81.075 
				69.935,97.703 76.971,100.081 69.192,106.595 99.265,117.587 99.283,107.674 			"/>
			<path fill="#424142" d="M88.15,24.332c-39.778,0-72.024,32.246-72.024,72.024c0,39.777,32.247,72.024,72.024,72.024
				s72.024-32.247,72.024-72.024C160.175,56.578,127.928,24.332,88.15,24.332z M134.895,130.609l-24.447-8.937h0l-11.179-4.086
				l-0.113,8.213l-0.303,22.207l-0.042,2.97c-0.05,3.646-2.654,5.103-5.789,3.237l-54.394-32.405
				c-3.134-1.867-3.093-4.852,0.091-6.632l20.656-11.552l10.589-5.922l-12.308-4.168l-18.416-6.237
				c-3.455-1.17-4.039-4.097-1.298-6.504l47.574-41.779c2.74-2.407,5.567-1.45,6.281,2.126l6.142,30.764l1.821,9.12l6.979-5.84
				l11.948-9.998l4.156-3.479c2.797-2.341,5.601-1.316,6.229,2.277l10.909,62.368C140.61,129.946,138.322,131.862,134.895,130.609z"
				/>
		</g>
	</g>
</g>
<g id="Layer_2">
	<g>
		<path fill="#FFFFFF" d="M72.024,0C32.247,0,0,32.247,0,72.024s32.247,72.024,72.024,72.024c39.778,0,72.024-32.247,72.024-72.024
			S111.803,0,72.024,0z M119.89,106.392l-25.166-8.734l-11.497-3.994l-0.005-10.148l6.313,2.006L83.29,56.279v-0.032l-0.1,0.004
			l-0.099-0.016l-0.061,0.054L52.877,73.807l7.226,2.315l-7.858,6.799l30.959,10.744l0.022,8.407l0.062,22.733l0.008,3.04
			c0.011,3.733-2.631,5.269-5.869,3.411l-56.214-32.25c-3.238-1.858-3.247-4.914-0.019-6.789l20.945-12.17l10.737-6.238
			l-12.666-4.06l-18.953-6.073c-3.555-1.139-4.202-4.125-1.438-6.635l47.986-43.558c2.765-2.51,5.673-1.579,6.465,2.071
			l6.802,31.381l2.017,9.302l7.045-6.093l12.06-10.433l4.196-3.629c2.823-2.442,5.709-1.441,6.414,2.226l12.212,63.646
			C125.72,105.618,123.418,107.617,119.89,106.392z"/>
		<g>
			<path fill="#FFFFFF" d="M170.29,31.25c0-2.072-0.696-3.147-2.768-3.147h-6.232v-9h10.524c6.364,0,9.476,2.824,9.476,9.187v26.936
				c0,3.403-0.745,5.877-0.745,5.877h0.296c0,0,6.216-14.112,25.307-14.112c19.979,0,32.411,16.031,32.411,39.118
				c0,23.531-14.06,39.136-33.595,39.136c-17.76,0-24.419-14.142-24.419-14.142h-0.296c0,0,0.041,2.136,0.041,5.688v6.312h-10V31.25
				z M204.225,116.2c13.171,0,23.975-11.1,23.975-30.043c0-18.203-9.768-29.895-23.531-29.895c-12.432,0-24.123,8.879-24.123,30.043
				C180.545,101.252,188.241,116.2,204.225,116.2z"/>
			<path fill="#FFFFFF" d="M283.917,47.086c21.755,0,39.367,16.575,39.367,38.626c0,22.495-17.612,39.367-39.219,39.367
				c-21.755,0-39.367-16.872-39.367-39.367C244.698,63.662,262.31,47.086,283.917,47.086z M284.065,116.051
				c15.835,0,28.859-13.023,28.859-30.339c0-16.871-13.023-29.45-28.859-29.45c-15.983,0-29.007,12.579-29.007,29.45
				C255.058,103.028,268.082,116.051,284.065,116.051z"/>
			<path fill="#FFFFFF" d="M368.344,47.086c21.755,0,39.366,16.575,39.366,38.626c0,22.495-17.611,39.367-39.219,39.367
				c-21.755,0-39.366-16.872-39.366-39.367C329.125,63.662,346.736,47.086,368.344,47.086z M368.491,116.051
				c15.836,0,28.859-13.023,28.859-30.339c0-16.871-13.023-29.45-28.859-29.45c-15.982,0-29.007,12.579-29.007,29.45
				C339.484,103.028,352.509,116.051,368.491,116.051z"/>
			<path fill="#FFFFFF" d="M415.29,60.849c0-2.071-0.967-2.746-3.039-2.746h-5.961v-9h10.105c6.216,0,8.895,2.422,8.895,8.046v3.403
				c0,2.96-0.163,5.55-0.163,5.55h0.296c2.664-7,12.264-18.906,29.729-18.906c18.498,0,25.139,10.396,25.139,28.748v35.371
				c0,2.22,0.927,3.788,2.999,3.788h6.001v8h-10.293c-6.363,0-8.707-2.464-8.707-8.828V78.609c0-11.691-1.937-22.051-16.292-22.051
				c-12.728,0-23.899,8.731-27.304,21.015c-0.888,3.108-1.404,6.512-1.404,10.063v35.467h-10V60.849z"/>
			<path fill="#FFFFFF" d="M527.776,47.086c8.436,0,26.514,3.552,26.514,15.835v7.182h-10V65.29c0-6.216-10.562-9.176-16.778-9.176
				c-15.983,0-28.739,11.987-28.739,30.043c0,18.352,13.528,29.747,29.216,29.747c15.243,0,24.005-10.508,24.005-10.508l4.752,7.548
				c0,0-10.057,12.136-29.148,12.136c-22.199,0-39.055-15.836-39.055-38.923C488.542,63.366,505.577,47.086,527.776,47.086z"/>
			<path fill="#FFFFFF" d="M598.896,47.086c21.755,0,39.366,16.575,39.366,38.626c0,22.495-17.611,39.367-39.219,39.367
				c-21.755,0-39.366-16.872-39.366-39.367C559.678,63.662,577.289,47.086,598.896,47.086z M599.044,116.051
				c15.836,0,28.859-13.023,28.859-30.339c0-16.871-13.023-29.45-28.859-29.45c-15.983,0-29.007,12.579-29.007,29.45
				C570.037,103.028,583.061,116.051,599.044,116.051z"/>
			<path fill="#FFFFFF" d="M647.29,60.849c0-2.071-1.414-2.746-3.485-2.746h-6.515v-9h10.658c6.216,0,9.342,2.422,9.342,8.046v3.403
				c0,2.96-0.61,5.55-0.61,5.55h0.296c2.664-7,11.988-18.906,29.451-18.906c18.5,0,24.863,10.396,24.863,28.748v35.371
				c0,2.22,1.479,3.788,3.552,3.788h6.448v8h-10.74c-6.363,0-9.26-2.464-9.26-8.828V78.609c0-11.691-1.66-22.051-16.016-22.051
				c-12.728,0-23.537,8.731-26.941,21.015c-0.889,3.108-1.043,6.512-1.043,10.063v35.467h-10V60.849z"/>
		</g>
	</g>
</g>
</svg>
